<?xml version="1.0" encoding="UTF-8"?>
<svg xmlns="http://www.w3.org/2000/svg" xmlns:xlink="http://www.w3.org/1999/xlink" width="26pt" height="18pt" viewBox="0 0 26 18" version="1.1">
<g id="surface1">
<path style=" stroke:none;fill-rule:evenodd;fill:rgb(13.72549%,9.411765%,8.235294%);fill-opacity:1;" d="M 5.636719 12.972656 L 5.636719 12.933594 L 5.632812 12.898438 L 5.625 12.84375 L 5.613281 12.816406 L 5.605469 12.796875 L 5.589844 12.773438 L 5.574219 12.753906 L 5.554688 12.734375 L 5.535156 12.71875 L 5.507812 12.699219 L 5.476562 12.683594 L 5.445312 12.664062 L 5.40625 12.648438 L 5.320312 12.613281 L 5.320312 12.507812 L 5.667969 12.390625 L 5.757812 12.359375 L 5.847656 12.324219 L 5.941406 12.285156 L 6.039062 12.246094 L 6.042969 12.246094 L 6.050781 12.25 L 6.054688 12.25 L 6.066406 12.261719 L 6.070312 12.28125 L 6.070312 12.652344 L 6.1875 12.574219 L 6.300781 12.496094 L 6.355469 12.460938 L 6.40625 12.425781 L 6.464844 12.394531 L 6.519531 12.367188 L 6.578125 12.339844 L 6.636719 12.316406 L 6.753906 12.277344 L 6.816406 12.261719 L 6.882812 12.253906 L 6.945312 12.25 L 7.011719 12.246094 L 7.054688 12.246094 L 7.09375 12.25 L 7.136719 12.253906 L 7.207031 12.269531 L 7.242188 12.28125 L 7.273438 12.289062 L 7.335938 12.320312 L 7.359375 12.335938 L 7.390625 12.351562 L 7.410156 12.375 L 7.460938 12.417969 L 7.476562 12.441406 L 7.535156 12.523438 L 7.546875 12.546875 L 7.5625 12.582031 L 7.585938 12.644531 L 7.59375 12.675781 L 7.605469 12.710938 L 7.621094 12.78125 L 7.628906 12.855469 L 7.632812 12.929688 L 7.636719 13.011719 L 7.636719 14.417969 L 7.640625 14.449219 L 7.644531 14.476562 L 7.648438 14.5 L 7.65625 14.523438 L 7.667969 14.539062 L 7.683594 14.554688 L 7.714844 14.578125 L 7.734375 14.585938 L 7.777344 14.59375 L 7.800781 14.597656 L 7.851562 14.601562 L 8.007812 14.601562 L 8.007812 14.742188 L 7.71875 14.734375 L 7.578125 14.734375 L 7.429688 14.730469 L 7.28125 14.730469 L 7.136719 14.734375 L 6.988281 14.734375 L 6.84375 14.742188 L 6.84375 14.601562 L 6.996094 14.601562 L 7.046875 14.597656 L 7.070312 14.59375 L 7.109375 14.585938 L 7.128906 14.578125 L 7.160156 14.554688 L 7.171875 14.539062 L 7.191406 14.5 L 7.195312 14.476562 L 7.199219 14.449219 L 7.203125 14.417969 L 7.203125 13.003906 L 7.199219 12.945312 L 7.191406 12.894531 L 7.167969 12.800781 L 7.15625 12.78125 L 7.148438 12.757812 L 7.125 12.71875 L 7.070312 12.65625 L 7.03125 12.625 L 6.996094 12.605469 L 6.953125 12.582031 L 6.910156 12.570312 L 6.863281 12.554688 L 6.8125 12.546875 L 6.703125 12.539062 L 6.632812 12.546875 L 6.554688 12.5625 L 6.515625 12.574219 L 6.476562 12.589844 L 6.429688 12.609375 L 6.300781 12.664062 L 6.21875 12.710938 L 6.140625 12.757812 L 6.070312 12.804688 L 6.070312 14.449219 L 6.078125 14.476562 L 6.082031 14.5 L 6.089844 14.523438 L 6.101562 14.539062 L 6.117188 14.554688 L 6.132812 14.566406 L 6.152344 14.578125 L 6.171875 14.585938 L 6.210938 14.59375 L 6.238281 14.597656 L 6.289062 14.601562 L 6.441406 14.601562 L 6.441406 14.742188 L 6.300781 14.738281 L 6.152344 14.734375 L 6.011719 14.734375 L 5.863281 14.730469 L 5.71875 14.730469 L 5.570312 14.734375 L 5.421875 14.734375 L 5.28125 14.742188 L 5.28125 14.601562 L 5.429688 14.601562 L 5.480469 14.597656 L 5.527344 14.589844 L 5.546875 14.585938 L 5.5625 14.578125 L 5.59375 14.554688 L 5.617188 14.523438 L 5.632812 14.476562 L 5.636719 14.449219 Z M 8.417969 13.234375 L 8.414062 13.253906 L 8.414062 13.429688 L 8.417969 13.550781 L 8.429688 13.648438 L 8.4375 13.695312 L 8.457031 13.785156 L 8.46875 13.832031 L 8.480469 13.871094 L 8.5 13.917969 L 8.511719 13.957031 L 8.53125 14 L 8.550781 14.039062 L 8.574219 14.078125 L 8.59375 14.113281 L 8.640625 14.183594 L 8.667969 14.21875 L 8.695312 14.25 L 8.726562 14.28125 L 8.753906 14.304688 L 8.816406 14.359375 L 8.847656 14.382812 L 8.882812 14.402344 L 8.953125 14.4375 L 9.023438 14.464844 L 9.101562 14.484375 L 9.136719 14.488281 L 9.179688 14.496094 L 9.273438 14.496094 L 9.328125 14.488281 L 9.378906 14.480469 L 9.433594 14.464844 L 9.527344 14.433594 L 9.578125 14.410156 L 9.667969 14.363281 L 9.796875 14.269531 L 9.835938 14.238281 L 9.953125 14.132812 L 9.972656 14.148438 L 10.011719 14.1875 L 10.03125 14.203125 L 9.980469 14.269531 L 9.828125 14.445312 L 9.71875 14.546875 L 9.660156 14.597656 L 9.601562 14.640625 L 9.535156 14.679688 L 9.503906 14.699219 L 9.4375 14.734375 L 9.402344 14.75 L 9.261719 14.796875 L 9.222656 14.800781 L 9.183594 14.8125 L 9.144531 14.8125 L 9.105469 14.820312 L 9.066406 14.820312 L 9.023438 14.824219 L 8.945312 14.820312 L 8.871094 14.8125 L 8.796875 14.800781 L 8.730469 14.785156 L 8.667969 14.765625 L 8.605469 14.742188 L 8.550781 14.71875 L 8.496094 14.683594 L 8.445312 14.652344 L 8.398438 14.617188 L 8.3125 14.539062 L 8.277344 14.496094 L 8.242188 14.449219 L 8.179688 14.359375 L 8.152344 14.3125 L 8.128906 14.261719 L 8.105469 14.214844 L 8.066406 14.113281 L 8.050781 14.0625 L 8.035156 14.015625 L 8.027344 13.96875 L 8.015625 13.917969 L 8 13.824219 L 7.996094 13.785156 L 7.988281 13.703125 L 7.984375 13.632812 L 7.988281 13.535156 L 7.992188 13.441406 L 8.003906 13.351562 L 8.015625 13.265625 L 8.03125 13.183594 L 8.054688 13.109375 L 8.078125 13.03125 L 8.101562 12.964844 L 8.132812 12.898438 L 8.164062 12.835938 L 8.195312 12.777344 L 8.230469 12.722656 L 8.269531 12.671875 L 8.308594 12.625 L 8.351562 12.578125 L 8.390625 12.535156 L 8.433594 12.496094 L 8.480469 12.464844 L 8.523438 12.429688 L 8.566406 12.398438 L 8.617188 12.375 L 8.703125 12.328125 L 8.796875 12.296875 L 8.839844 12.28125 L 8.882812 12.269531 L 8.96875 12.253906 L 9.046875 12.246094 L 9.125 12.246094 L 9.164062 12.25 L 9.207031 12.25 L 9.328125 12.273438 L 9.371094 12.28125 L 9.453125 12.3125 L 9.488281 12.328125 L 9.527344 12.34375 L 9.601562 12.382812 L 9.671875 12.429688 L 9.707031 12.457031 L 9.738281 12.484375 L 9.796875 12.542969 L 9.824219 12.574219 L 9.851562 12.613281 L 9.898438 12.683594 L 9.917969 12.726562 L 9.9375 12.765625 L 9.96875 12.851562 L 9.980469 12.898438 L 9.988281 12.945312 L 9.996094 12.996094 L 10 13.046875 L 10 13.199219 L 9.984375 13.210938 L 9.960938 13.226562 L 9.945312 13.234375 Z M 9.382812 13.058594 L 9.40625 13.058594 L 9.429688 13.054688 L 9.445312 13.050781 L 9.464844 13.046875 L 9.476562 13.042969 L 9.488281 13.03125 L 9.5 13.023438 L 9.507812 13.015625 L 9.515625 13.003906 L 9.523438 12.996094 L 9.527344 12.972656 L 9.535156 12.945312 L 9.535156 12.921875 L 9.53125 12.871094 L 9.523438 12.820312 L 9.515625 12.773438 L 9.503906 12.726562 L 9.464844 12.640625 L 9.441406 12.601562 L 9.410156 12.566406 L 9.378906 12.535156 L 9.34375 12.503906 L 9.285156 12.46875 L 9.261719 12.457031 L 9.242188 12.449219 L 9.195312 12.433594 L 9.167969 12.429688 L 9.117188 12.421875 L 9.089844 12.417969 L 9.03125 12.417969 L 9 12.421875 L 8.914062 12.4375 L 8.859375 12.453125 L 8.835938 12.464844 L 8.78125 12.488281 L 8.757812 12.503906 L 8.734375 12.515625 L 8.710938 12.535156 L 8.691406 12.550781 L 8.667969 12.570312 L 8.628906 12.613281 L 8.609375 12.632812 L 8.59375 12.660156 L 8.574219 12.683594 L 8.542969 12.738281 L 8.515625 12.792969 L 8.488281 12.855469 L 8.46875 12.917969 L 8.449219 12.984375 L 8.4375 13.058594 Z M 10.128906 14.601562 L 10.328125 14.601562 L 10.378906 14.597656 L 10.402344 14.59375 L 10.441406 14.585938 L 10.460938 14.578125 L 10.492188 14.554688 L 10.503906 14.539062 L 10.523438 14.5 L 10.527344 14.476562 L 10.53125 14.449219 L 10.535156 14.417969 L 10.535156 12.882812 L 10.53125 12.855469 L 10.523438 12.828125 L 10.515625 12.804688 L 10.5 12.78125 L 10.46875 12.742188 L 10.445312 12.730469 L 10.421875 12.710938 L 10.402344 12.699219 L 10.328125 12.671875 L 10.289062 12.652344 L 10.253906 12.636719 L 10.253906 12.554688 L 10.390625 12.496094 L 10.515625 12.4375 L 10.625 12.382812 L 10.714844 12.335938 L 10.789062 12.300781 L 10.847656 12.269531 L 10.890625 12.25 L 10.902344 12.246094 L 10.925781 12.246094 L 10.945312 12.25 L 10.953125 12.261719 L 10.957031 12.269531 L 10.960938 12.28125 L 10.964844 12.296875 L 10.964844 12.808594 L 10.976562 12.808594 L 11.03125 12.722656 L 11.09375 12.628906 L 11.132812 12.582031 L 11.167969 12.535156 L 11.207031 12.492188 L 11.25 12.445312 L 11.292969 12.40625 L 11.34375 12.367188 L 11.390625 12.332031 L 11.417969 12.316406 L 11.441406 12.300781 L 11.496094 12.277344 L 11.523438 12.269531 L 11.582031 12.253906 L 11.609375 12.25 L 11.640625 12.246094 L 11.695312 12.246094 L 11.75 12.253906 L 11.804688 12.269531 L 11.828125 12.28125 L 11.855469 12.300781 L 11.898438 12.335938 L 11.917969 12.355469 L 11.9375 12.378906 L 11.949219 12.40625 L 11.964844 12.433594 L 11.980469 12.496094 L 11.980469 12.5625 L 11.976562 12.585938 L 11.960938 12.640625 L 11.949219 12.664062 L 11.941406 12.6875 L 11.925781 12.710938 L 11.910156 12.730469 L 11.875 12.765625 L 11.804688 12.800781 L 11.78125 12.808594 L 11.753906 12.8125 L 11.695312 12.8125 L 11.671875 12.808594 L 11.644531 12.800781 L 11.625 12.792969 L 11.585938 12.769531 L 11.519531 12.722656 L 11.5 12.710938 L 11.476562 12.703125 L 11.457031 12.695312 L 11.429688 12.6875 L 11.398438 12.683594 L 11.347656 12.683594 L 11.324219 12.6875 L 11.292969 12.695312 L 11.265625 12.707031 L 11.234375 12.71875 L 11.199219 12.738281 L 11.164062 12.761719 L 11.132812 12.785156 L 11.101562 12.8125 L 11.070312 12.847656 L 11.042969 12.882812 L 11.019531 12.925781 L 11.007812 12.945312 L 11 12.972656 L 10.988281 12.996094 L 10.980469 13.023438 L 10.976562 13.046875 L 10.972656 13.074219 L 10.96875 13.105469 L 10.96875 14.449219 L 10.972656 14.476562 L 10.988281 14.523438 L 11.011719 14.554688 L 11.042969 14.578125 L 11.058594 14.585938 L 11.101562 14.59375 L 11.125 14.597656 L 11.175781 14.601562 L 11.535156 14.601562 L 11.535156 14.742188 L 11.324219 14.734375 L 11.128906 14.734375 L 10.949219 14.730469 L 10.605469 14.730469 L 10.4375 14.734375 L 10.277344 14.734375 L 10.128906 14.742188 Z M 12.222656 13.980469 L 12.234375 14.050781 L 12.253906 14.113281 L 12.300781 14.238281 L 12.332031 14.296875 L 12.363281 14.351562 L 12.402344 14.40625 L 12.417969 14.425781 L 12.441406 14.449219 L 12.460938 14.472656 L 12.484375 14.496094 L 12.53125 14.535156 L 12.554688 14.546875 L 12.585938 14.566406 L 12.613281 14.582031 L 12.667969 14.605469 L 12.730469 14.625 L 12.796875 14.640625 L 12.867188 14.648438 L 12.902344 14.648438 L 12.964844 14.644531 L 13.015625 14.640625 L 13.109375 14.617188 L 13.152344 14.597656 L 13.1875 14.574219 L 13.21875 14.550781 L 13.269531 14.5 L 13.289062 14.464844 L 13.304688 14.433594 L 13.320312 14.40625 L 13.332031 14.367188 L 13.335938 14.332031 L 13.34375 14.296875 L 13.34375 14.203125 L 13.335938 14.175781 L 13.332031 14.148438 L 13.316406 14.101562 L 13.292969 14.054688 L 13.238281 13.976562 L 13.160156 13.90625 L 13.117188 13.875 L 13.019531 13.820312 L 12.972656 13.792969 L 12.863281 13.742188 L 12.753906 13.6875 L 12.695312 13.664062 L 12.640625 13.636719 L 12.589844 13.605469 L 12.539062 13.578125 L 12.480469 13.542969 L 12.433594 13.511719 L 12.390625 13.472656 L 12.34375 13.429688 L 12.324219 13.40625 L 12.304688 13.386719 L 12.285156 13.363281 L 12.269531 13.335938 L 12.253906 13.3125 L 12.222656 13.257812 L 12.1875 13.164062 L 12.164062 13.058594 L 12.164062 13.023438 L 12.160156 12.984375 L 12.160156 12.914062 L 12.164062 12.855469 L 12.171875 12.828125 L 12.179688 12.796875 L 12.1875 12.769531 L 12.195312 12.734375 L 12.207031 12.703125 L 12.234375 12.648438 L 12.269531 12.585938 L 12.289062 12.5625 L 12.308594 12.53125 L 12.332031 12.503906 L 12.359375 12.480469 L 12.382812 12.453125 L 12.410156 12.429688 L 12.445312 12.40625 L 12.507812 12.367188 L 12.542969 12.347656 L 12.582031 12.328125 L 12.617188 12.3125 L 12.703125 12.28125 L 12.746094 12.269531 L 12.792969 12.261719 L 12.84375 12.253906 L 12.898438 12.25 L 12.949219 12.246094 L 13.003906 12.246094 L 13.070312 12.25 L 13.144531 12.253906 L 13.21875 12.269531 L 13.300781 12.28125 L 13.378906 12.304688 L 13.460938 12.335938 L 13.5 12.347656 L 13.582031 12.382812 L 13.621094 12.402344 L 13.632812 12.542969 L 13.640625 12.683594 L 13.652344 12.820312 L 13.660156 12.960938 L 13.535156 12.960938 L 13.523438 12.894531 L 13.492188 12.78125 L 13.46875 12.730469 L 13.417969 12.636719 L 13.398438 12.617188 L 13.386719 12.597656 L 13.347656 12.5625 L 13.328125 12.542969 L 13.3125 12.53125 L 13.269531 12.5 L 13.226562 12.476562 L 13.199219 12.464844 L 13.152344 12.449219 L 13.121094 12.4375 L 13.0625 12.429688 L 13.007812 12.421875 L 12.941406 12.417969 L 12.902344 12.421875 L 12.859375 12.425781 L 12.824219 12.433594 L 12.746094 12.457031 L 12.710938 12.46875 L 12.679688 12.492188 L 12.648438 12.511719 L 12.621094 12.535156 L 12.59375 12.5625 L 12.554688 12.625 L 12.539062 12.660156 L 12.527344 12.699219 L 12.519531 12.738281 L 12.519531 12.808594 L 12.523438 12.835938 L 12.527344 12.867188 L 12.53125 12.890625 L 12.539062 12.914062 L 12.574219 12.984375 L 12.601562 13.027344 L 12.671875 13.097656 L 12.714844 13.132812 L 12.761719 13.160156 L 12.808594 13.195312 L 12.863281 13.21875 L 12.917969 13.246094 L 13.03125 13.296875 L 13.152344 13.347656 L 13.265625 13.402344 L 13.324219 13.429688 L 13.433594 13.492188 L 13.488281 13.527344 L 13.535156 13.5625 L 13.585938 13.605469 L 13.628906 13.648438 L 13.644531 13.675781 L 13.664062 13.695312 L 13.679688 13.722656 L 13.699219 13.746094 L 13.714844 13.773438 L 13.726562 13.804688 L 13.75 13.863281 L 13.757812 13.898438 L 13.765625 13.929688 L 13.773438 13.96875 L 13.777344 14.003906 L 13.777344 14.042969 L 13.78125 14.078125 L 13.773438 14.183594 L 13.757812 14.25 L 13.75 14.28125 L 13.738281 14.316406 L 13.726562 14.347656 L 13.695312 14.410156 L 13.675781 14.445312 L 13.65625 14.472656 L 13.632812 14.5 L 13.609375 14.535156 L 13.585938 14.5625 L 13.554688 14.585938 L 13.523438 14.613281 L 13.496094 14.636719 L 13.425781 14.683594 L 13.347656 14.722656 L 13.261719 14.757812 L 13.21875 14.773438 L 13.171875 14.785156 L 13.070312 14.808594 L 13.015625 14.8125 L 12.960938 14.820312 L 12.902344 14.820312 L 12.84375 14.824219 L 12.804688 14.820312 L 12.71875 14.816406 L 12.589844 14.796875 L 12.417969 14.746094 L 12.375 14.730469 L 12.335938 14.714844 L 12.296875 14.695312 L 12.257812 14.679688 L 12.21875 14.65625 L 12.183594 14.636719 L 12.164062 14.484375 L 12.152344 14.324219 L 12.136719 14.167969 L 12.121094 14.007812 L 12.148438 14.003906 L 12.21875 13.980469 Z M 18.6875 11.917969 L 18.550781 11.917969 L 18.542969 11.859375 L 18.53125 11.800781 L 18.515625 11.75 L 18.496094 11.695312 L 18.480469 11.644531 L 18.457031 11.597656 L 18.4375 11.554688 L 18.414062 11.507812 L 18.390625 11.464844 L 18.359375 11.425781 L 18.332031 11.390625 L 18.300781 11.351562 L 18.265625 11.320312 L 18.234375 11.289062 L 18.199219 11.257812 L 18.160156 11.226562 L 18.125 11.203125 L 18.039062 11.15625 L 18 11.136719 L 17.953125 11.117188 L 17.910156 11.101562 L 17.863281 11.085938 L 17.765625 11.058594 L 17.714844 11.050781 L 17.664062 11.039062 L 17.609375 11.03125 L 17.558594 11.027344 L 17.503906 11.023438 L 17.445312 11.023438 L 17.390625 11.019531 L 17.332031 11.023438 L 17.207031 11.03125 L 17.082031 11.054688 L 17.015625 11.070312 L 16.953125 11.085938 L 16.886719 11.109375 L 16.820312 11.128906 L 16.757812 11.15625 L 16.691406 11.1875 L 16.632812 11.222656 L 16.566406 11.257812 L 16.507812 11.300781 L 16.445312 11.34375 L 16.390625 11.394531 L 16.332031 11.449219 L 16.277344 11.503906 L 16.226562 11.566406 L 16.179688 11.628906 L 16.128906 11.695312 L 16.085938 11.769531 L 16.046875 11.847656 L 16.007812 11.929688 L 15.972656 12.015625 L 15.960938 12.0625 L 15.945312 12.105469 L 15.929688 12.152344 L 15.917969 12.199219 L 15.894531 12.300781 L 15.886719 12.351562 L 15.871094 12.460938 L 15.863281 12.574219 L 15.855469 12.691406 L 15.855469 12.855469 L 15.867188 12.957031 L 15.875 13.054688 L 15.890625 13.152344 L 15.910156 13.246094 L 15.933594 13.335938 L 15.992188 13.511719 L 16.023438 13.597656 L 16.0625 13.679688 L 16.148438 13.835938 L 16.195312 13.910156 L 16.296875 14.050781 L 16.351562 14.113281 L 16.410156 14.175781 L 16.46875 14.234375 L 16.59375 14.339844 L 16.660156 14.386719 L 16.730469 14.429688 L 16.871094 14.507812 L 16.945312 14.539062 L 17.015625 14.566406 L 17.089844 14.59375 L 17.167969 14.613281 L 17.242188 14.628906 L 17.320312 14.640625 L 17.476562 14.648438 L 17.527344 14.648438 L 17.578125 14.644531 L 17.625 14.640625 L 17.671875 14.632812 L 17.722656 14.621094 L 17.765625 14.613281 L 17.8125 14.597656 L 17.855469 14.582031 L 17.902344 14.566406 L 17.949219 14.546875 L 18.03125 14.5 L 18.070312 14.476562 L 18.109375 14.449219 L 18.148438 14.417969 L 18.183594 14.390625 L 18.253906 14.328125 L 18.347656 14.214844 L 18.378906 14.175781 L 18.402344 14.136719 L 18.425781 14.09375 L 18.453125 14.050781 L 18.476562 14.003906 L 18.496094 13.953125 L 18.511719 13.910156 L 18.53125 13.859375 L 18.542969 13.808594 L 18.558594 13.757812 L 18.570312 13.703125 L 18.632812 13.71875 L 18.691406 13.734375 L 18.632812 14.136719 L 18.601562 14.332031 L 18.570312 14.535156 L 18.523438 14.5625 L 18.46875 14.585938 L 18.335938 14.640625 L 18.261719 14.664062 L 18.183594 14.6875 L 18.019531 14.734375 L 17.757812 14.785156 L 17.671875 14.796875 L 17.589844 14.808594 L 17.511719 14.816406 L 17.4375 14.820312 L 17.367188 14.824219 L 17.25 14.820312 L 17.132812 14.8125 L 17.019531 14.800781 L 16.914062 14.785156 L 16.808594 14.765625 L 16.707031 14.738281 L 16.601562 14.710938 L 16.507812 14.675781 L 16.457031 14.65625 L 16.367188 14.617188 L 16.320312 14.59375 L 16.234375 14.546875 L 16.195312 14.523438 L 16.152344 14.496094 L 16.070312 14.445312 L 16.035156 14.414062 L 15.992188 14.382812 L 15.960938 14.351562 L 15.921875 14.320312 L 15.886719 14.289062 L 15.851562 14.253906 L 15.789062 14.1875 L 15.757812 14.148438 L 15.726562 14.117188 L 15.640625 14 L 15.613281 13.957031 L 15.589844 13.917969 L 15.5625 13.875 L 15.515625 13.789062 L 15.472656 13.703125 L 15.4375 13.609375 L 15.375 13.414062 L 15.347656 13.3125 L 15.328125 13.210938 L 15.3125 13.101562 L 15.300781 12.996094 L 15.292969 12.882812 L 15.292969 12.664062 L 15.300781 12.613281 L 15.304688 12.5625 L 15.308594 12.515625 L 15.324219 12.414062 L 15.335938 12.367188 L 15.347656 12.316406 L 15.359375 12.269531 L 15.390625 12.175781 L 15.40625 12.132812 L 15.425781 12.082031 L 15.441406 12.039062 L 15.464844 11.996094 L 15.503906 11.910156 L 15.554688 11.828125 L 15.609375 11.746094 L 15.664062 11.671875 L 15.722656 11.59375 L 15.785156 11.523438 L 15.851562 11.453125 L 15.992188 11.324219 L 16.070312 11.265625 L 16.148438 11.210938 L 16.234375 11.160156 L 16.316406 11.109375 L 16.402344 11.066406 L 16.488281 11.027344 L 16.582031 10.988281 L 16.675781 10.957031 L 16.765625 10.925781 L 16.957031 10.882812 L 17.054688 10.867188 L 17.152344 10.855469 L 17.253906 10.847656 L 17.351562 10.84375 L 17.4375 10.847656 L 17.515625 10.851562 L 17.597656 10.863281 L 17.675781 10.871094 L 17.761719 10.882812 L 17.839844 10.898438 L 17.921875 10.914062 L 18 10.933594 L 18.078125 10.957031 L 18.160156 10.980469 L 18.320312 11.027344 L 18.476562 11.082031 L 18.636719 11.136719 L 18.648438 11.332031 L 18.675781 11.722656 Z M 18.886719 14.601562 L 19.039062 14.601562 L 19.09375 14.597656 L 19.113281 14.59375 L 19.15625 14.585938 L 19.175781 14.578125 L 19.207031 14.554688 L 19.230469 14.523438 L 19.246094 14.476562 L 19.246094 14.449219 L 19.25 14.417969 L 19.25 11.3125 L 19.246094 11.257812 L 19.242188 11.207031 L 19.230469 11.167969 L 19.222656 11.132812 L 19.214844 11.101562 L 19.199219 11.074219 L 19.183594 11.050781 L 19.164062 11.03125 L 19.144531 11.019531 L 19.121094 11.003906 L 19.066406 10.980469 L 19.035156 10.972656 L 18.960938 10.949219 L 18.960938 10.863281 L 19.039062 10.835938 L 19.125 10.804688 L 19.203125 10.777344 L 19.28125 10.746094 L 19.351562 10.710938 L 19.417969 10.679688 L 19.472656 10.65625 L 19.519531 10.628906 L 19.5625 10.605469 L 19.597656 10.585938 L 19.625 10.570312 L 19.632812 10.570312 L 19.640625 10.566406 L 19.652344 10.570312 L 19.667969 10.578125 L 19.675781 10.589844 L 19.679688 10.601562 L 19.679688 10.613281 L 19.683594 10.628906 L 19.683594 14.449219 L 19.691406 14.476562 L 19.695312 14.5 L 19.703125 14.523438 L 19.714844 14.539062 L 19.730469 14.554688 L 19.746094 14.566406 L 19.765625 14.578125 L 19.78125 14.585938 L 19.828125 14.59375 L 19.847656 14.597656 L 19.902344 14.601562 L 20.046875 14.601562 L 20.046875 14.742188 L 19.625 14.730469 L 19.332031 14.730469 L 19.183594 14.734375 L 19.035156 14.734375 L 18.886719 14.742188 Z M 22.375 14.441406 L 22.375 14.457031 L 22.378906 14.472656 L 22.378906 14.484375 L 22.390625 14.507812 L 22.398438 14.515625 L 22.410156 14.523438 L 22.414062 14.527344 L 22.425781 14.535156 L 22.4375 14.535156 L 22.464844 14.539062 L 22.527344 14.546875 L 22.578125 14.542969 L 22.636719 14.539062 L 22.742188 14.539062 L 22.742188 14.652344 L 22.699219 14.660156 L 22.648438 14.664062 L 22.539062 14.683594 L 22.304688 14.734375 L 22.191406 14.761719 L 22.09375 14.785156 L 22.015625 14.808594 L 21.960938 14.824219 L 21.949219 14.8125 L 21.941406 14.8125 L 21.933594 14.808594 L 21.933594 14.367188 L 21.8125 14.460938 L 21.757812 14.507812 L 21.703125 14.550781 L 21.644531 14.589844 L 21.589844 14.625 L 21.53125 14.664062 L 21.476562 14.695312 L 21.359375 14.75 L 21.300781 14.769531 L 21.238281 14.789062 L 21.175781 14.804688 L 21.042969 14.820312 L 20.972656 14.824219 L 20.917969 14.820312 L 20.863281 14.8125 L 20.808594 14.800781 L 20.753906 14.785156 L 20.730469 14.773438 L 20.703125 14.765625 L 20.679688 14.75 L 20.652344 14.738281 L 20.628906 14.722656 L 20.585938 14.691406 L 20.5625 14.671875 L 20.519531 14.628906 L 20.5 14.605469 L 20.484375 14.582031 L 20.4375 14.5 L 20.402344 14.40625 L 20.394531 14.367188 L 20.386719 14.332031 L 20.382812 14.296875 L 20.378906 14.253906 L 20.375 14.214844 L 20.371094 14.171875 L 20.371094 12.699219 L 20.363281 12.671875 L 20.359375 12.648438 L 20.351562 12.621094 L 20.339844 12.601562 L 20.324219 12.582031 L 20.308594 12.558594 L 20.285156 12.539062 L 20.261719 12.523438 L 20.226562 12.507812 L 20.191406 12.496094 L 20.148438 12.484375 L 20.101562 12.476562 L 20.046875 12.46875 L 20.046875 12.367188 L 20.132812 12.363281 L 20.230469 12.355469 L 20.445312 12.34375 L 20.636719 12.335938 L 20.75 12.328125 L 20.769531 12.328125 L 20.792969 12.339844 L 20.792969 12.347656 L 20.796875 12.351562 L 20.800781 12.359375 L 20.808594 12.382812 L 20.8125 12.410156 L 20.8125 14.015625 L 20.816406 14.0625 L 20.824219 14.113281 L 20.847656 14.222656 L 20.859375 14.25 L 20.867188 14.273438 L 20.878906 14.300781 L 20.910156 14.347656 L 20.941406 14.390625 L 20.984375 14.433594 L 21.007812 14.449219 L 21.035156 14.46875 L 21.066406 14.484375 L 21.09375 14.496094 L 21.160156 14.515625 L 21.199219 14.523438 L 21.238281 14.527344 L 21.320312 14.527344 L 21.355469 14.523438 L 21.390625 14.515625 L 21.429688 14.5 L 21.46875 14.488281 L 21.511719 14.472656 L 21.554688 14.453125 L 21.59375 14.433594 L 21.679688 14.382812 L 21.726562 14.355469 L 21.765625 14.328125 L 21.8125 14.296875 L 21.851562 14.265625 L 21.941406 14.195312 L 21.941406 12.726562 L 21.9375 12.703125 L 21.933594 12.699219 L 21.925781 12.6875 L 21.914062 12.667969 L 21.894531 12.652344 L 21.847656 12.621094 L 21.816406 12.609375 L 21.785156 12.59375 L 21.714844 12.566406 L 21.484375 12.5 L 21.484375 12.402344 L 21.660156 12.390625 L 21.8125 12.378906 L 22.070312 12.351562 L 22.246094 12.335938 L 22.300781 12.328125 L 22.347656 12.328125 L 22.359375 12.335938 L 22.363281 12.339844 L 22.371094 12.351562 L 22.371094 12.367188 L 22.375 12.382812 Z M 23.457031 14.125 L 23.457031 14.164062 L 23.46875 14.207031 L 23.476562 14.25 L 23.492188 14.300781 L 23.511719 14.34375 L 23.566406 14.4375 L 23.601562 14.480469 L 23.621094 14.5 L 23.636719 14.523438 L 23.65625 14.539062 L 23.679688 14.5625 L 23.75 14.609375 L 23.777344 14.625 L 23.800781 14.636719 L 23.828125 14.648438 L 23.890625 14.664062 L 23.917969 14.671875 L 23.949219 14.679688 L 23.980469 14.679688 L 24.019531 14.683594 L 24.121094 14.675781 L 24.171875 14.664062 L 24.21875 14.65625 L 24.265625 14.640625 L 24.308594 14.625 L 24.351562 14.605469 L 24.390625 14.585938 L 24.429688 14.5625 L 24.464844 14.535156 L 24.5 14.503906 L 24.5625 14.441406 L 24.59375 14.40625 L 24.648438 14.332031 L 24.695312 14.253906 L 24.714844 14.214844 L 24.734375 14.171875 L 24.769531 14.082031 L 24.785156 14.035156 L 24.796875 13.992188 L 24.804688 13.945312 L 24.816406 13.898438 L 24.832031 13.804688 L 24.84375 13.714844 L 24.84375 13.566406 L 24.839844 13.511719 L 24.832031 13.460938 L 24.824219 13.40625 L 24.8125 13.355469 L 24.785156 13.25 L 24.765625 13.203125 L 24.75 13.15625 L 24.703125 13.0625 L 24.65625 12.976562 L 24.597656 12.894531 L 24.570312 12.859375 L 24.535156 12.824219 L 24.503906 12.789062 L 24.472656 12.757812 L 24.433594 12.726562 L 24.402344 12.699219 L 24.363281 12.671875 L 24.328125 12.648438 L 24.210938 12.585938 L 24.09375 12.550781 L 24.054688 12.546875 L 24.011719 12.542969 L 23.972656 12.539062 L 23.9375 12.542969 L 23.898438 12.546875 L 23.863281 12.550781 L 23.828125 12.5625 L 23.796875 12.574219 L 23.761719 12.585938 L 23.726562 12.601562 L 23.632812 12.660156 L 23.570312 12.703125 L 23.511719 12.75 L 23.457031 12.796875 L 23.457031 14.125 L 23.457031 12.636719 L 23.585938 12.53125 L 23.636719 12.496094 L 23.679688 12.464844 L 23.726562 12.429688 L 23.78125 12.398438 L 23.832031 12.371094 L 23.882812 12.347656 L 23.9375 12.320312 L 23.988281 12.300781 L 24.042969 12.28125 L 24.097656 12.265625 L 24.15625 12.253906 L 24.265625 12.246094 L 24.328125 12.246094 L 24.378906 12.25 L 24.4375 12.257812 L 24.546875 12.28125 L 24.59375 12.300781 L 24.644531 12.316406 L 24.691406 12.339844 L 24.738281 12.367188 L 24.78125 12.390625 L 24.863281 12.449219 L 24.941406 12.519531 L 24.976562 12.554688 L 25.039062 12.632812 L 25.070312 12.679688 L 25.125 12.765625 L 25.144531 12.8125 L 25.171875 12.863281 L 25.1875 12.910156 L 25.207031 12.960938 L 25.238281 13.0625 L 25.25 13.117188 L 25.257812 13.171875 L 25.269531 13.226562 L 25.277344 13.335938 L 25.277344 13.460938 L 25.273438 13.523438 L 25.253906 13.65625 L 25.222656 13.789062 L 25.203125 13.855469 L 25.183594 13.917969 L 25.160156 13.980469 L 25.101562 14.101562 L 25.070312 14.15625 L 25.039062 14.214844 L 24.960938 14.324219 L 24.917969 14.375 L 24.875 14.421875 L 24.832031 14.472656 L 24.679688 14.601562 L 24.570312 14.667969 L 24.511719 14.699219 L 24.449219 14.730469 L 24.324219 14.773438 L 24.257812 14.792969 L 24.191406 14.804688 L 24.050781 14.820312 L 23.980469 14.824219 L 23.90625 14.820312 L 23.769531 14.8125 L 23.652344 14.789062 L 23.601562 14.78125 L 23.546875 14.765625 L 23.503906 14.75 L 23.457031 14.734375 L 23.417969 14.71875 L 23.34375 14.6875 L 23.28125 14.65625 L 23.222656 14.632812 L 23.058594 14.757812 L 23.035156 14.742188 L 23.003906 14.730469 L 22.976562 14.714844 L 22.945312 14.699219 L 22.992188 14.335938 L 23.003906 14.214844 L 23.011719 14.09375 L 23.019531 13.851562 L 23.023438 13.722656 L 23.023438 11.3125 L 23.015625 11.257812 L 23.015625 11.207031 L 23.003906 11.167969 L 22.996094 11.132812 L 22.984375 11.101562 L 22.972656 11.074219 L 22.953125 11.050781 L 22.9375 11.03125 L 22.917969 11.019531 L 22.890625 11.003906 L 22.867188 10.992188 L 22.835938 10.980469 L 22.804688 10.972656 L 22.734375 10.949219 L 22.734375 10.863281 L 22.8125 10.835938 L 22.898438 10.804688 L 22.976562 10.777344 L 23.050781 10.746094 L 23.125 10.710938 L 23.1875 10.679688 L 23.246094 10.65625 L 23.292969 10.628906 L 23.335938 10.605469 L 23.367188 10.585938 L 23.394531 10.570312 L 23.414062 10.566406 L 23.4375 10.574219 L 23.441406 10.582031 L 23.449219 10.589844 L 23.453125 10.601562 L 23.453125 10.613281 L 23.457031 10.644531 Z M 0.925781 15.921875 L 0.683594 15.921875 L 0.566406 15.929688 L 0.335938 15.929688 L 0.21875 15.921875 L 0 15.921875 L 0 16.035156 L 0.09375 16.035156 L 0.132812 16.039062 L 0.164062 16.046875 L 0.183594 16.050781 L 0.195312 16.058594 L 0.210938 16.066406 L 0.222656 16.078125 L 0.230469 16.089844 L 0.242188 16.105469 L 0.25 16.121094 L 0.257812 16.164062 L 0.261719 16.1875 L 0.261719 17.746094 L 0.257812 17.773438 L 0.253906 17.796875 L 0.25 17.816406 L 0.242188 17.835938 L 0.230469 17.847656 L 0.222656 17.859375 L 0.210938 17.871094 L 0.195312 17.878906 L 0.183594 17.886719 L 0.164062 17.890625 L 0.132812 17.898438 L 0.09375 17.902344 L 0.0507812 17.90625 L 0 17.90625 L 0 18.019531 L 0.0117188 18.019531 L 0.109375 18.015625 L 0.21875 18.011719 L 0.335938 18.007812 L 0.558594 18.007812 L 0.683594 18.011719 L 0.800781 18.015625 L 0.914062 18.019531 L 0.90625 18.007812 L 0.914062 18.019531 L 0.925781 18.019531 L 0.925781 17.90625 L 0.871094 17.90625 L 0.796875 17.898438 L 0.757812 17.890625 L 0.746094 17.886719 L 0.714844 17.871094 L 0.703125 17.859375 L 0.695312 17.847656 L 0.683594 17.835938 L 0.671875 17.796875 L 0.667969 17.773438 L 0.664062 17.746094 L 0.664062 16.1875 L 0.671875 16.140625 L 0.679688 16.121094 L 0.683594 16.105469 L 0.695312 16.089844 L 0.703125 16.078125 L 0.714844 16.066406 L 0.746094 16.050781 L 0.757812 16.046875 L 0.796875 16.039062 L 0.832031 16.035156 L 0.925781 16.035156 Z M 3.410156 15.921875 L 3.21875 15.921875 L 3.136719 15.929688 L 2.941406 15.929688 L 2.839844 15.921875 L 2.617188 15.921875 L 2.617188 16.035156 L 2.695312 16.035156 L 2.730469 16.039062 L 2.75 16.039062 L 2.769531 16.042969 L 2.808594 16.058594 L 2.832031 16.066406 L 2.851562 16.078125 L 2.867188 16.09375 L 2.882812 16.113281 L 2.902344 16.136719 L 2.914062 16.160156 L 2.925781 16.1875 L 2.933594 16.21875 L 2.9375 16.257812 L 2.941406 16.300781 L 2.941406 17.394531 L 2.289062 16.65625 L 1.964844 16.292969 L 1.636719 15.921875 L 1.566406 15.921875 L 1.367188 15.929688 L 1.285156 15.929688 L 1.195312 15.921875 L 1.015625 15.921875 L 1.015625 16.035156 L 1.085938 16.035156 L 1.113281 16.039062 L 1.136719 16.042969 L 1.203125 16.070312 L 1.242188 16.101562 L 1.273438 16.140625 L 1.285156 16.160156 L 1.300781 16.179688 L 1.316406 16.234375 L 1.320312 16.257812 L 1.320312 17.625 L 1.316406 17.664062 L 1.308594 17.695312 L 1.304688 17.730469 L 1.28125 17.785156 L 1.25 17.832031 L 1.234375 17.851562 L 1.191406 17.882812 L 1.136719 17.898438 L 1.105469 17.902344 L 1.066406 17.90625 L 1.015625 17.90625 L 1.015625 18.019531 L 1.027344 18.019531 L 1.125 18.015625 L 1.230469 18.011719 L 1.328125 18.007812 L 1.523438 18.007812 L 1.714844 18.015625 L 1.8125 18.019531 L 1.824219 18.019531 L 1.824219 17.90625 L 1.757812 17.90625 L 1.652344 17.894531 L 1.625 17.886719 L 1.601562 17.875 L 1.582031 17.867188 L 1.558594 17.851562 L 1.546875 17.832031 L 1.53125 17.8125 L 1.523438 17.789062 L 1.515625 17.761719 L 1.507812 17.730469 L 1.5 17.695312 L 1.5 17.660156 L 1.496094 17.570312 L 1.496094 16.378906 L 2.246094 17.21875 L 2.996094 18.0625 L 3.132812 18.0625 L 3.132812 18.058594 L 3.128906 18.054688 L 3.128906 18.050781 L 3.121094 17.976562 L 3.117188 17.90625 L 3.113281 17.828125 L 3.113281 16.335938 L 3.121094 16.28125 L 3.125 16.234375 L 3.136719 16.195312 L 3.148438 16.160156 L 3.160156 16.128906 L 3.179688 16.105469 L 3.195312 16.085938 L 3.222656 16.058594 L 3.265625 16.042969 L 3.289062 16.039062 L 3.308594 16.039062 L 3.355469 16.035156 L 3.414062 16.035156 L 3.414062 15.921875 Z M 5.007812 18.019531 L 4.90625 18.015625 L 4.785156 18.011719 L 4.652344 18.007812 L 4.386719 18.007812 L 4.253906 18.011719 L 4.128906 18.015625 L 4.027344 18.019531 L 4.015625 18.019531 L 4.015625 17.90625 L 4.082031 17.90625 L 4.140625 17.902344 L 4.1875 17.898438 L 4.226562 17.890625 L 4.242188 17.882812 L 4.257812 17.871094 L 4.28125 17.84375 L 4.292969 17.824219 L 4.300781 17.804688 L 4.308594 17.777344 L 4.3125 17.742188 L 4.3125 16.09375 L 3.804688 16.09375 L 3.769531 16.097656 L 3.714844 16.105469 L 3.695312 16.109375 L 3.675781 16.121094 L 3.660156 16.128906 L 3.648438 16.140625 L 3.636719 16.15625 L 3.625 16.175781 L 3.621094 16.195312 L 3.609375 16.21875 L 3.597656 16.28125 L 3.582031 16.351562 L 3.582031 16.359375 L 3.578125 16.363281 L 3.464844 16.363281 L 3.464844 16.351562 L 3.472656 16.285156 L 3.484375 16.222656 L 3.492188 16.160156 L 3.503906 16.097656 L 3.507812 16.035156 L 3.519531 15.90625 L 3.519531 15.832031 L 3.613281 15.832031 L 3.613281 15.84375 L 3.617188 15.84375 L 3.625 15.867188 L 3.632812 15.875 L 3.636719 15.886719 L 3.644531 15.890625 L 3.652344 15.898438 L 3.667969 15.90625 L 3.6875 15.914062 L 3.710938 15.917969 C 3.738281 15.917969 3.757812 15.921875 3.78125 15.921875 L 5.304688 15.921875 L 5.335938 15.917969 L 5.363281 15.917969 L 5.386719 15.914062 L 5.410156 15.90625 L 5.425781 15.898438 L 5.433594 15.890625 L 5.445312 15.875 L 5.449219 15.863281 L 5.453125 15.839844 L 5.453125 15.828125 L 5.457031 15.824219 L 5.464844 15.824219 L 5.46875 15.828125 L 5.488281 15.828125 L 5.511719 15.835938 L 5.535156 15.835938 L 5.550781 15.84375 L 5.550781 15.855469 L 5.539062 15.914062 L 5.535156 15.972656 L 5.527344 16.035156 L 5.515625 16.09375 L 5.515625 16.34375 L 5.503906 16.34375 L 5.476562 16.355469 L 5.453125 16.363281 L 5.421875 16.375 L 5.398438 16.382812 L 5.398438 16.367188 L 5.394531 16.324219 L 5.378906 16.230469 L 5.371094 16.207031 L 5.363281 16.1875 L 5.351562 16.167969 L 5.335938 16.148438 L 5.320312 16.136719 L 5.300781 16.121094 L 5.28125 16.109375 L 5.253906 16.101562 L 5.191406 16.09375 L 4.71875 16.09375 L 4.71875 17.660156 L 4.722656 17.703125 L 4.726562 17.738281 L 4.726562 17.765625 L 4.738281 17.792969 L 4.746094 17.816406 L 4.769531 17.855469 L 4.785156 17.867188 L 4.800781 17.875 L 4.816406 17.886719 L 4.835938 17.890625 L 4.859375 17.894531 L 4.875 17.898438 L 4.902344 17.902344 L 4.953125 17.90625 L 5.023438 17.90625 L 5.023438 18.019531 Z M 7.207031 18.007812 L 7.214844 18.019531 L 7.046875 18.015625 L 6.847656 18.011719 L 6.628906 18.007812 L 6.207031 18.007812 L 5.992188 18.011719 L 5.789062 18.015625 L 5.632812 18.019531 L 5.621094 18.019531 L 5.621094 17.90625 L 5.675781 17.90625 L 5.710938 17.902344 L 5.75 17.898438 L 5.789062 17.890625 L 5.800781 17.886719 L 5.816406 17.882812 L 5.828125 17.871094 L 5.84375 17.859375 L 5.851562 17.847656 L 5.863281 17.835938 L 5.867188 17.816406 L 5.875 17.796875 L 5.875 17.773438 L 5.878906 17.746094 L 5.878906 16.1875 L 5.875 16.164062 L 5.875 16.140625 L 5.867188 16.121094 L 5.863281 16.105469 L 5.851562 16.089844 L 5.839844 16.078125 L 5.828125 16.070312 L 5.816406 16.058594 L 5.789062 16.046875 L 5.75 16.039062 L 5.710938 16.035156 L 5.621094 16.035156 L 5.621094 15.921875 L 5.972656 15.921875 L 6.171875 15.929688 L 6.5625 15.929688 L 6.765625 15.921875 L 7.136719 15.921875 L 7.136719 16.320312 L 7.144531 16.386719 L 7.144531 16.398438 L 7.140625 16.398438 L 7.136719 16.402344 L 7.109375 16.40625 L 7.058594 16.421875 L 7.03125 16.425781 L 7.03125 16.414062 L 7.027344 16.410156 L 7.023438 16.339844 L 7.019531 16.308594 L 7.011719 16.277344 L 7.003906 16.25 L 6.996094 16.21875 L 6.964844 16.171875 L 6.945312 16.152344 L 6.921875 16.132812 L 6.894531 16.117188 L 6.828125 16.089844 L 6.785156 16.085938 L 6.734375 16.078125 L 6.679688 16.074219 L 6.28125 16.074219 L 6.28125 16.828125 L 6.652344 16.828125 L 6.679688 16.824219 L 6.703125 16.820312 L 6.726562 16.8125 L 6.746094 16.800781 L 6.777344 16.777344 L 6.800781 16.75 L 6.808594 16.726562 L 6.824219 16.683594 L 6.835938 16.636719 L 6.84375 16.578125 L 6.84375 16.566406 L 6.957031 16.566406 L 6.957031 16.582031 L 6.953125 16.667969 L 6.953125 16.753906 L 6.949219 16.839844 L 6.949219 17.015625 L 6.953125 17.179688 L 6.957031 17.265625 L 6.957031 17.277344 L 6.953125 17.277344 L 6.953125 17.28125 L 6.921875 17.28125 L 6.894531 17.289062 L 6.871094 17.296875 L 6.84375 17.300781 L 6.84375 17.285156 L 6.835938 17.222656 L 6.828125 17.164062 L 6.824219 17.140625 L 6.808594 17.097656 L 6.800781 17.078125 L 6.789062 17.0625 L 6.773438 17.046875 L 6.757812 17.035156 L 6.738281 17.023438 L 6.691406 17.007812 L 6.628906 17 L 6.28125 17 L 6.28125 17.683594 L 6.285156 17.714844 L 6.289062 17.742188 L 6.296875 17.765625 L 6.3125 17.789062 L 6.324219 17.804688 L 6.34375 17.820312 L 6.386719 17.84375 L 6.414062 17.847656 L 6.4375 17.855469 L 6.464844 17.855469 L 6.492188 17.859375 L 6.753906 17.859375 L 6.808594 17.855469 L 6.859375 17.855469 L 6.953125 17.839844 L 6.988281 17.828125 L 7.027344 17.808594 L 7.042969 17.804688 L 7.058594 17.789062 L 7.074219 17.78125 L 7.117188 17.738281 L 7.140625 17.703125 L 7.160156 17.664062 L 7.183594 17.621094 L 7.203125 17.570312 L 7.21875 17.507812 L 7.222656 17.503906 L 7.222656 17.496094 L 7.226562 17.496094 L 7.230469 17.5 L 7.234375 17.5 L 7.261719 17.507812 L 7.28125 17.511719 L 7.304688 17.519531 L 7.328125 17.523438 L 7.328125 17.535156 L 7.296875 17.65625 L 7.226562 18.007812 L 7.226562 18.015625 L 7.222656 18.019531 L 7.214844 18.019531 Z M 8.238281 16.921875 L 8.289062 16.921875 L 8.339844 16.917969 L 8.386719 16.910156 L 8.429688 16.898438 L 8.46875 16.886719 L 8.503906 16.871094 L 8.539062 16.851562 L 8.554688 16.839844 L 8.59375 16.800781 L 8.605469 16.785156 L 8.625 16.75 L 8.636719 16.730469 L 8.648438 16.6875 L 8.664062 16.644531 L 8.671875 16.59375 L 8.679688 16.535156 L 8.679688 16.425781 L 8.664062 16.335938 L 8.632812 16.257812 L 8.617188 16.226562 L 8.59375 16.195312 L 8.566406 16.167969 L 8.539062 16.136719 L 8.472656 16.097656 L 8.433594 16.082031 L 8.394531 16.070312 L 8.351562 16.058594 L 8.308594 16.054688 L 8.261719 16.050781 L 8.207031 16.054688 L 8.167969 16.054688 L 8.132812 16.058594 L 8.105469 16.0625 L 8.105469 16.921875 Z M 9.472656 18.019531 L 9.324219 18.011719 L 9.253906 18.007812 L 9.113281 18.007812 L 9.042969 18.011719 L 8.96875 18.015625 L 8.890625 18.015625 L 8.808594 17.902344 L 8.730469 17.789062 L 8.648438 17.671875 L 8.425781 17.308594 L 8.351562 17.183594 L 8.28125 17.054688 L 8.105469 17.054688 L 8.105469 17.71875 L 8.109375 17.753906 L 8.117188 17.78125 L 8.121094 17.808594 L 8.132812 17.828125 L 8.140625 17.847656 L 8.171875 17.875 L 8.183594 17.882812 L 8.203125 17.890625 L 8.242188 17.898438 L 8.335938 17.90625 L 8.402344 17.90625 L 8.402344 18.019531 L 8.386719 18.019531 L 8.261719 18.015625 L 8.003906 18.007812 L 7.773438 18.007812 L 7.667969 18.011719 L 7.449219 18.019531 L 7.4375 18.019531 L 7.4375 17.90625 L 7.503906 17.90625 L 7.542969 17.902344 L 7.578125 17.894531 L 7.59375 17.890625 L 7.628906 17.875 L 7.644531 17.867188 L 7.675781 17.835938 L 7.683594 17.820312 L 7.691406 17.808594 L 7.699219 17.777344 L 7.699219 16.207031 L 7.695312 16.175781 L 7.6875 16.148438 L 7.683594 16.125 L 7.671875 16.105469 L 7.664062 16.089844 L 7.648438 16.070312 L 7.636719 16.0625 L 7.609375 16.046875 L 7.574219 16.039062 L 7.539062 16.035156 L 7.4375 16.035156 L 7.4375 15.921875 L 7.648438 15.921875 L 7.773438 15.929688 L 8.035156 15.929688 L 8.15625 15.921875 L 8.523438 15.921875 L 8.589844 15.933594 L 8.65625 15.941406 L 8.714844 15.953125 L 8.777344 15.972656 L 8.804688 15.984375 L 8.832031 16 L 8.859375 16.011719 L 8.882812 16.023438 L 8.90625 16.039062 L 8.953125 16.078125 L 8.996094 16.117188 L 9.011719 16.136719 L 9.027344 16.164062 L 9.042969 16.1875 L 9.054688 16.214844 L 9.070312 16.246094 L 9.078125 16.273438 L 9.085938 16.304688 L 9.09375 16.339844 L 9.097656 16.375 L 9.101562 16.414062 L 9.101562 16.503906 L 9.09375 16.554688 L 9.085938 16.597656 L 9.054688 16.675781 L 9.035156 16.714844 L 9.015625 16.75 L 8.984375 16.785156 L 8.957031 16.820312 L 8.925781 16.847656 L 8.890625 16.875 L 8.859375 16.898438 L 8.820312 16.921875 L 8.777344 16.945312 L 8.742188 16.96875 L 8.699219 16.984375 L 9.070312 17.546875 L 9.195312 17.730469 L 9.222656 17.777344 L 9.25 17.808594 L 9.28125 17.835938 L 9.324219 17.867188 L 9.34375 17.875 L 9.378906 17.886719 L 9.421875 17.894531 L 9.472656 17.90625 L 9.484375 17.90625 L 9.484375 18.019531 Z M 11.621094 18.0625 L 11.558594 18.0625 L 11.53125 18.058594 L 11.152344 17.640625 L 10.777344 17.21875 L 10.027344 16.378906 L 10.027344 17.570312 L 10.03125 17.660156 L 10.039062 17.730469 L 10.046875 17.761719 L 10.054688 17.789062 L 10.066406 17.8125 L 10.078125 17.832031 L 10.09375 17.851562 L 10.109375 17.867188 L 10.132812 17.875 L 10.160156 17.886719 L 10.183594 17.894531 L 10.253906 17.902344 L 10.292969 17.90625 L 10.355469 17.90625 L 10.355469 18.019531 L 10.34375 18.019531 L 10.246094 18.015625 L 10.054688 18.007812 L 9.863281 18.007812 L 9.558594 18.019531 L 9.546875 18.019531 L 9.546875 17.90625 L 9.601562 17.90625 L 9.636719 17.902344 L 9.667969 17.898438 L 9.722656 17.882812 L 9.765625 17.851562 L 9.78125 17.832031 L 9.800781 17.808594 L 9.824219 17.761719 L 9.835938 17.730469 L 9.839844 17.695312 L 9.847656 17.660156 L 9.851562 17.625 L 9.851562 16.234375 L 9.839844 16.207031 L 9.832031 16.179688 L 9.820312 16.160156 L 9.773438 16.101562 L 9.753906 16.085938 L 9.734375 16.074219 L 9.714844 16.058594 L 9.695312 16.050781 L 9.667969 16.042969 L 9.621094 16.035156 L 9.546875 16.035156 L 9.546875 15.921875 L 9.730469 15.921875 L 9.816406 15.929688 L 9.964844 15.929688 L 10.097656 15.921875 L 10.171875 15.921875 L 10.820312 16.65625 L 11.144531 17.027344 L 11.472656 17.394531 L 11.472656 16.257812 L 11.464844 16.21875 L 11.457031 16.1875 L 11.445312 16.160156 L 11.433594 16.136719 L 11.417969 16.113281 L 11.402344 16.09375 L 11.382812 16.078125 L 11.34375 16.054688 L 11.324219 16.050781 L 11.300781 16.042969 L 11.28125 16.039062 L 11.261719 16.039062 L 11.226562 16.035156 L 11.148438 16.035156 L 11.148438 15.921875 L 11.371094 15.921875 L 11.472656 15.929688 L 11.667969 15.929688 L 11.757812 15.921875 L 11.957031 15.921875 L 11.957031 16.035156 L 11.898438 16.035156 L 11.851562 16.039062 L 11.828125 16.039062 L 11.804688 16.042969 L 11.765625 16.058594 L 11.746094 16.070312 L 11.726562 16.085938 L 11.710938 16.105469 L 11.695312 16.128906 L 11.679688 16.160156 L 11.671875 16.195312 L 11.65625 16.234375 L 11.652344 16.28125 L 11.648438 16.335938 L 11.644531 16.398438 L 11.644531 17.828125 L 11.648438 17.90625 L 11.65625 17.976562 L 11.664062 18.050781 L 11.664062 18.0625 L 11.65625 18.0625 C 11.644531 18.0625 11.652344 18.0625 11.621094 18.0625 M 15.285156 18.019531 L 15.1875 18.015625 L 15.0625 18.011719 L 14.933594 18.007812 L 14.667969 18.007812 L 14.535156 18.011719 L 14.410156 18.015625 L 14.304688 18.019531 L 14.292969 18.019531 L 14.292969 17.90625 L 14.363281 17.90625 L 14.421875 17.902344 L 14.46875 17.898438 L 14.507812 17.890625 L 14.539062 17.871094 L 14.550781 17.855469 L 14.5625 17.84375 L 14.574219 17.824219 L 14.582031 17.804688 L 14.585938 17.777344 L 14.59375 17.742188 L 14.59375 17.707031 L 14.597656 17.667969 L 14.597656 16.09375 L 14.085938 16.09375 L 14.050781 16.097656 L 13.996094 16.105469 L 13.972656 16.109375 L 13.941406 16.128906 L 13.925781 16.140625 L 13.917969 16.15625 L 13.90625 16.175781 L 13.898438 16.195312 L 13.890625 16.21875 L 13.875 16.28125 L 13.863281 16.351562 L 13.859375 16.355469 L 13.859375 16.363281 L 13.746094 16.363281 L 13.746094 16.351562 L 13.757812 16.289062 L 13.765625 16.222656 L 13.789062 16.035156 L 13.792969 15.972656 L 13.800781 15.84375 L 13.800781 15.832031 L 13.894531 15.832031 L 13.894531 15.84375 L 13.898438 15.855469 L 13.910156 15.875 L 13.917969 15.886719 L 13.925781 15.890625 L 13.933594 15.898438 L 13.949219 15.90625 L 13.992188 15.917969 L 14.046875 15.921875 L 15.589844 15.921875 L 15.617188 15.917969 L 15.644531 15.917969 L 15.667969 15.914062 L 15.691406 15.90625 L 15.707031 15.898438 L 15.71875 15.882812 L 15.726562 15.875 L 15.730469 15.863281 L 15.734375 15.855469 L 15.734375 15.824219 L 15.746094 15.824219 L 15.75 15.828125 L 15.769531 15.828125 L 15.789062 15.835938 L 15.8125 15.835938 L 15.832031 15.84375 L 15.832031 15.855469 L 15.820312 15.914062 L 15.8125 15.972656 L 15.804688 16.035156 L 15.796875 16.09375 L 15.792969 16.15625 L 15.792969 16.34375 L 15.78125 16.34375 L 15.757812 16.355469 L 15.730469 16.363281 L 15.707031 16.375 L 15.679688 16.382812 L 15.679688 16.378906 L 15.675781 16.375 L 15.675781 16.324219 L 15.660156 16.230469 L 15.652344 16.207031 L 15.632812 16.167969 L 15.617188 16.148438 L 15.601562 16.136719 L 15.582031 16.121094 L 15.558594 16.109375 L 15.535156 16.101562 L 15.472656 16.09375 L 15 16.09375 L 15 17.660156 L 15.003906 17.703125 L 15.003906 17.738281 L 15.007812 17.765625 L 15.015625 17.792969 L 15.039062 17.835938 L 15.050781 17.855469 L 15.0625 17.867188 L 15.097656 17.886719 L 15.117188 17.890625 L 15.160156 17.898438 L 15.183594 17.902344 L 15.234375 17.90625 L 15.300781 17.90625 L 15.300781 18.019531 Z M 16.824219 18.007812 L 16.828125 18.019531 L 16.71875 18.015625 L 16.59375 18.011719 L 16.476562 18.007812 L 16.25 18.007812 L 16.132812 18.011719 L 16.023438 18.015625 L 15.925781 18.019531 L 15.914062 18.019531 L 15.914062 17.90625 L 15.96875 17.90625 L 16.046875 17.898438 L 16.078125 17.890625 L 16.097656 17.886719 L 16.109375 17.882812 L 16.125 17.871094 L 16.148438 17.847656 L 16.15625 17.835938 L 16.164062 17.816406 L 16.171875 17.773438 L 16.171875 16.164062 L 16.164062 16.121094 L 16.148438 16.089844 L 16.125 16.066406 L 16.109375 16.058594 L 16.097656 16.050781 L 16.046875 16.039062 L 16.007812 16.035156 L 15.914062 16.035156 L 15.914062 15.921875 L 16.136719 15.921875 L 16.253906 15.929688 L 16.480469 15.929688 L 16.601562 15.921875 L 16.839844 15.921875 L 16.839844 16.035156 L 16.75 16.035156 L 16.710938 16.039062 L 16.691406 16.042969 L 16.675781 16.046875 L 16.644531 16.058594 L 16.632812 16.066406 L 16.617188 16.078125 L 16.609375 16.089844 L 16.59375 16.121094 L 16.585938 16.140625 L 16.582031 16.164062 L 16.582031 17.773438 L 16.585938 17.796875 L 16.601562 17.835938 L 16.617188 17.859375 L 16.632812 17.871094 L 16.644531 17.882812 L 16.691406 17.894531 L 16.710938 17.898438 L 16.789062 17.90625 L 16.839844 17.90625 L 16.839844 18.019531 L 16.828125 18.019531 Z M 21.304688 18.0625 L 21.246094 18.0625 L 21.214844 18.058594 L 21.183594 18.058594 L 20.808594 17.640625 L 20.0625 16.800781 L 19.683594 16.378906 L 19.683594 17.570312 L 19.6875 17.660156 L 19.695312 17.730469 L 19.703125 17.761719 L 19.710938 17.789062 L 19.722656 17.8125 L 19.734375 17.832031 L 19.75 17.851562 L 19.769531 17.867188 L 19.789062 17.875 L 19.8125 17.886719 L 19.84375 17.894531 L 19.875 17.898438 L 19.910156 17.902344 L 19.949219 17.90625 L 20.011719 17.90625 L 20.011719 18.019531 L 20 18.019531 L 19.902344 18.015625 L 19.714844 18.007812 L 19.515625 18.007812 L 19.316406 18.015625 L 19.214844 18.019531 L 19.203125 18.019531 L 19.203125 17.90625 L 19.257812 17.90625 L 19.292969 17.902344 L 19.324219 17.898438 L 19.378906 17.882812 L 19.402344 17.867188 L 19.421875 17.851562 L 19.441406 17.832031 L 19.457031 17.808594 L 19.480469 17.761719 L 19.492188 17.730469 L 19.5 17.695312 L 19.507812 17.625 L 19.511719 17.542969 L 19.511719 16.257812 L 19.503906 16.234375 L 19.5 16.207031 L 19.488281 16.179688 L 19.476562 16.160156 L 19.460938 16.136719 L 19.449219 16.121094 L 19.429688 16.101562 L 19.390625 16.070312 L 19.371094 16.058594 L 19.324219 16.042969 L 19.300781 16.039062 L 19.28125 16.035156 L 19.203125 16.035156 L 19.203125 15.921875 L 19.386719 15.921875 L 19.472656 15.929688 L 19.621094 15.929688 L 19.6875 15.925781 L 19.757812 15.921875 L 19.828125 15.921875 L 20.15625 16.292969 L 20.480469 16.65625 L 20.804688 17.027344 L 21.128906 17.394531 L 21.128906 16.300781 L 21.125 16.257812 L 21.121094 16.21875 L 21.113281 16.1875 L 21.101562 16.160156 L 21.089844 16.136719 L 21.074219 16.113281 L 21.058594 16.09375 L 21.039062 16.078125 L 21.019531 16.066406 L 20.996094 16.058594 L 20.957031 16.042969 L 20.9375 16.039062 L 20.921875 16.039062 L 20.882812 16.035156 L 20.804688 16.035156 L 20.804688 15.921875 L 21.027344 15.921875 L 21.128906 15.929688 L 21.324219 15.929688 L 21.414062 15.921875 L 21.609375 15.921875 L 21.609375 16.035156 L 21.554688 16.035156 L 21.503906 16.039062 L 21.484375 16.039062 L 21.460938 16.042969 L 21.421875 16.058594 L 21.398438 16.070312 L 21.382812 16.085938 L 21.367188 16.105469 L 21.351562 16.128906 L 21.335938 16.160156 L 21.324219 16.195312 L 21.316406 16.234375 L 21.308594 16.285156 L 21.304688 16.335938 L 21.304688 17.90625 L 21.3125 17.976562 L 21.320312 18.050781 L 21.320312 18.0625 Z M 25.308594 18.007812 L 25.3125 18.019531 L 25.117188 18.015625 L 24.730469 18.007812 L 24.339844 18.007812 L 24.144531 18.011719 L 23.945312 18.015625 L 23.753906 18.019531 L 23.742188 18.019531 L 23.742188 17.90625 L 23.792969 17.90625 L 23.832031 17.902344 L 23.890625 17.894531 L 23.925781 17.886719 L 23.9375 17.875 L 23.949219 17.867188 L 23.964844 17.855469 L 23.976562 17.839844 L 23.992188 17.800781 L 24 17.777344 L 24.003906 17.75 L 24.003906 16.164062 L 24 16.140625 L 23.992188 16.121094 L 23.976562 16.089844 L 23.964844 16.078125 L 23.9375 16.058594 L 23.925781 16.050781 L 23.90625 16.046875 L 23.890625 16.042969 L 23.871094 16.039062 L 23.832031 16.035156 L 23.742188 16.035156 L 23.742188 15.921875 L 23.988281 15.921875 L 24.105469 15.929688 L 24.332031 15.929688 L 24.445312 15.921875 L 24.679688 15.921875 L 24.679688 16.035156 L 24.554688 16.035156 L 24.519531 16.039062 L 24.488281 16.042969 L 24.472656 16.046875 L 24.457031 16.054688 L 24.445312 16.058594 L 24.4375 16.070312 L 24.425781 16.082031 L 24.421875 16.097656 L 24.414062 16.113281 L 24.410156 16.132812 L 24.410156 16.15625 L 24.40625 16.179688 L 24.40625 17.714844 L 24.410156 17.753906 L 24.414062 17.769531 L 24.433594 17.808594 L 24.445312 17.820312 L 24.480469 17.84375 L 24.507812 17.855469 L 24.539062 17.863281 L 24.570312 17.867188 L 24.613281 17.871094 L 24.652344 17.871094 L 24.695312 17.875 L 24.792969 17.875 L 24.847656 17.871094 L 24.90625 17.867188 L 24.960938 17.863281 L 24.984375 17.859375 L 25.003906 17.855469 L 25.046875 17.84375 L 25.085938 17.828125 L 25.125 17.808594 L 25.160156 17.785156 L 25.1875 17.761719 L 25.214844 17.734375 L 25.238281 17.707031 L 25.265625 17.660156 L 25.277344 17.628906 L 25.292969 17.605469 L 25.3125 17.546875 L 25.324219 17.496094 L 25.328125 17.496094 L 25.328125 17.488281 L 25.441406 17.488281 L 25.441406 17.492188 L 25.4375 17.496094 L 25.4375 17.503906 L 25.410156 17.628906 L 25.382812 17.757812 L 25.328125 18.007812 L 25.324219 18.011719 L 25.324219 18.019531 L 25.3125 18.019531 Z M 0.519531 11.535156 L 0.515625 11.488281 L 0.515625 11.449219 L 0.511719 11.410156 L 0.503906 11.371094 L 0.5 11.339844 L 0.492188 11.308594 L 0.484375 11.28125 L 0.472656 11.257812 L 0.460938 11.230469 L 0.449219 11.207031 L 0.4375 11.1875 L 0.40625 11.15625 L 0.394531 11.140625 L 0.375 11.128906 L 0.359375 11.121094 L 0.339844 11.109375 L 0.324219 11.101562 L 0.28125 11.089844 L 0.246094 11.082031 L 0.199219 11.074219 L 0.15625 11.074219 L 0.109375 11.070312 L 0.0195312 11.070312 L 0.0195312 10.929688 L 0.175781 10.933594 L 0.339844 10.9375 L 0.5 10.941406 L 0.660156 10.941406 L 0.84375 10.9375 L 1.066406 10.933594 L 1.316406 10.929688 L 1.730469 10.929688 L 1.792969 10.933594 L 1.917969 10.945312 L 2.039062 10.960938 L 2.097656 10.972656 L 2.15625 10.980469 L 2.214844 10.992188 L 2.378906 11.039062 L 2.484375 11.070312 L 2.585938 11.109375 L 2.632812 11.128906 L 2.679688 11.15625 L 2.726562 11.175781 L 2.820312 11.226562 L 2.863281 11.253906 L 2.90625 11.277344 L 2.949219 11.304688 L 2.988281 11.335938 L 3.070312 11.390625 L 3.144531 11.457031 L 3.214844 11.523438 L 3.273438 11.589844 L 3.335938 11.660156 L 3.398438 11.734375 L 3.449219 11.808594 L 3.5 11.886719 L 3.546875 11.96875 L 3.625 12.132812 L 3.6875 12.304688 L 3.710938 12.390625 L 3.730469 12.480469 L 3.742188 12.570312 L 3.757812 12.660156 L 3.765625 12.75 L 3.765625 12.894531 L 3.761719 12.949219 L 3.757812 13.011719 L 3.75 13.078125 L 3.738281 13.144531 L 3.726562 13.214844 L 3.6875 13.363281 L 3.664062 13.441406 L 3.636719 13.519531 L 3.601562 13.601562 L 3.523438 13.757812 L 3.476562 13.839844 L 3.425781 13.914062 L 3.398438 13.957031 L 3.335938 14.03125 L 3.304688 14.070312 L 3.273438 14.105469 L 3.234375 14.144531 L 3.207031 14.179688 L 3.128906 14.25 L 3.089844 14.28125 L 3.046875 14.316406 L 3.003906 14.347656 L 2.957031 14.378906 L 2.90625 14.410156 L 2.859375 14.4375 L 2.804688 14.464844 L 2.753906 14.496094 L 2.695312 14.519531 L 2.640625 14.546875 L 2.578125 14.566406 L 2.519531 14.59375 L 2.390625 14.632812 L 2.324219 14.652344 L 2.253906 14.664062 L 2.183594 14.683594 L 2.035156 14.707031 L 1.957031 14.71875 L 1.878906 14.726562 L 1.792969 14.734375 L 1.710938 14.734375 L 1.625 14.742188 L 1.535156 14.742188 L 1.332031 14.738281 L 1.132812 14.734375 L 0.9375 14.734375 L 0.746094 14.730469 L 0.5625 14.730469 L 0.382812 14.734375 L 0.203125 14.734375 L 0.0195312 14.742188 L 0.0195312 14.601562 L 0.132812 14.585938 L 0.183594 14.582031 L 0.277344 14.5625 L 0.316406 14.550781 L 0.351562 14.535156 L 0.386719 14.515625 L 0.398438 14.507812 L 0.410156 14.496094 L 0.425781 14.484375 L 0.460938 14.4375 L 0.46875 14.417969 L 0.480469 14.402344 L 0.492188 14.359375 L 0.503906 14.304688 L 0.511719 14.25 L 0.519531 14.183594 Z M 1.050781 14.097656 L 1.050781 14.136719 L 1.054688 14.171875 L 1.058594 14.203125 L 1.066406 14.234375 L 1.070312 14.269531 L 1.082031 14.296875 L 1.089844 14.320312 L 1.101562 14.347656 L 1.113281 14.371094 L 1.128906 14.390625 L 1.140625 14.410156 L 1.160156 14.429688 L 1.175781 14.449219 L 1.195312 14.460938 L 1.210938 14.476562 L 1.234375 14.488281 L 1.253906 14.5 L 1.277344 14.511719 L 1.320312 14.527344 L 1.414062 14.550781 L 1.464844 14.558594 L 1.566406 14.566406 L 1.726562 14.566406 L 1.777344 14.5625 L 1.878906 14.546875 L 1.925781 14.542969 L 2.019531 14.527344 L 2.066406 14.515625 L 2.195312 14.480469 L 2.238281 14.464844 L 2.316406 14.433594 L 2.355469 14.414062 L 2.394531 14.398438 L 2.429688 14.378906 L 2.5 14.332031 L 2.5625 14.289062 L 2.625 14.242188 L 2.683594 14.1875 L 2.738281 14.136719 L 2.839844 14.019531 L 2.882812 13.957031 L 2.921875 13.890625 L 2.992188 13.757812 L 3.023438 13.6875 L 3.050781 13.617188 L 3.074219 13.546875 L 3.097656 13.472656 L 3.117188 13.394531 L 3.132812 13.324219 L 3.15625 13.167969 L 3.164062 13.09375 L 3.171875 13.015625 L 3.175781 12.9375 L 3.175781 12.859375 L 3.167969 12.671875 L 3.160156 12.582031 L 3.144531 12.492188 L 3.128906 12.40625 L 3.109375 12.320312 L 3.085938 12.234375 L 3.054688 12.15625 L 3.027344 12.078125 L 2.996094 12 L 2.957031 11.929688 L 2.914062 11.855469 L 2.871094 11.789062 L 2.820312 11.722656 L 2.773438 11.660156 L 2.71875 11.597656 L 2.601562 11.488281 L 2.542969 11.4375 L 2.472656 11.390625 L 2.40625 11.34375 L 2.335938 11.304688 L 2.261719 11.269531 L 2.183594 11.234375 L 2.105469 11.207031 L 2.023438 11.175781 L 1.9375 11.15625 L 1.847656 11.136719 L 1.757812 11.125 L 1.667969 11.109375 L 1.574219 11.105469 L 1.476562 11.101562 L 1.398438 11.101562 L 1.328125 11.105469 L 1.214844 11.109375 L 1.125 11.121094 L 1.050781 11.125 Z M 17.949219 15.867188 L 17.894531 15.875 L 17.839844 15.878906 L 17.671875 15.914062 L 17.570312 15.953125 L 17.523438 15.972656 L 17.472656 16 L 17.429688 16.023438 L 17.382812 16.054688 L 17.34375 16.085938 L 17.300781 16.117188 L 17.257812 16.152344 L 17.21875 16.1875 L 17.183594 16.226562 L 17.152344 16.265625 L 17.089844 16.351562 L 17.058594 16.398438 L 17.035156 16.441406 L 17.007812 16.492188 L 16.988281 16.539062 L 16.949219 16.644531 L 16.933594 16.695312 L 16.925781 16.75 L 16.914062 16.804688 L 16.90625 16.863281 L 16.902344 16.917969 L 16.902344 16.980469 L 16.90625 17.097656 L 16.914062 17.152344 L 16.925781 17.210938 L 16.9375 17.265625 L 16.953125 17.316406 L 16.96875 17.371094 L 16.988281 17.417969 L 17.011719 17.46875 L 17.035156 17.515625 L 17.0625 17.5625 L 17.089844 17.605469 L 17.121094 17.648438 L 17.152344 17.6875 L 17.1875 17.726562 L 17.226562 17.761719 L 17.261719 17.796875 L 17.347656 17.859375 L 17.390625 17.886719 L 17.4375 17.914062 L 17.480469 17.9375 L 17.527344 17.960938 L 17.582031 17.980469 L 17.632812 18 L 17.683594 18.015625 L 17.792969 18.039062 L 17.847656 18.046875 L 17.90625 18.054688 L 17.964844 18.054688 L 18.023438 18.058594 L 18.082031 18.054688 L 18.140625 18.054688 L 18.253906 18.039062 L 18.308594 18.023438 L 18.363281 18.011719 L 18.417969 17.996094 L 18.519531 17.957031 L 18.570312 17.929688 L 18.613281 17.90625 L 18.707031 17.847656 L 18.75 17.8125 L 18.785156 17.777344 L 18.828125 17.742188 L 18.898438 17.660156 L 18.933594 17.621094 L 18.964844 17.574219 L 19.019531 17.480469 L 19.046875 17.429688 L 19.085938 17.328125 L 19.105469 17.269531 L 19.121094 17.214844 L 19.132812 17.15625 L 19.152344 17.035156 L 19.152344 16.789062 L 19.132812 16.675781 L 19.101562 16.574219 L 19.082031 16.519531 L 19.066406 16.472656 L 19.039062 16.425781 L 19.015625 16.382812 L 18.988281 16.335938 L 18.960938 16.296875 L 18.929688 16.253906 L 18.894531 16.21875 L 18.859375 16.179688 L 18.820312 16.148438 L 18.78125 16.113281 L 18.738281 16.085938 L 18.691406 16.054688 L 18.648438 16.023438 L 18.605469 16.003906 L 18.554688 15.980469 L 18.507812 15.960938 L 18.457031 15.941406 L 18.402344 15.921875 L 18.347656 15.90625 L 18.296875 15.894531 L 18.238281 15.886719 L 18.183594 15.875 L 18.125 15.875 L 18.066406 15.867188 Z M 18.128906 16.039062 L 18.171875 16.046875 L 18.210938 16.058594 L 18.28125 16.089844 L 18.316406 16.109375 L 18.347656 16.136719 L 18.382812 16.15625 L 18.4375 16.210938 L 18.492188 16.273438 L 18.539062 16.335938 L 18.5625 16.371094 L 18.582031 16.40625 L 18.601562 16.445312 L 18.617188 16.484375 L 18.632812 16.519531 L 18.660156 16.605469 L 18.671875 16.644531 L 18.691406 16.726562 L 18.695312 16.765625 L 18.710938 16.851562 L 18.714844 16.933594 L 18.714844 17.054688 L 18.710938 17.136719 L 18.699219 17.21875 L 18.691406 17.300781 L 18.679688 17.339844 L 18.675781 17.378906 L 18.640625 17.496094 L 18.625 17.53125 L 18.613281 17.566406 L 18.59375 17.601562 L 18.554688 17.664062 L 18.53125 17.691406 L 18.507812 17.726562 L 18.457031 17.777344 L 18.394531 17.820312 L 18.359375 17.835938 L 18.320312 17.855469 L 18.285156 17.867188 L 18.242188 17.882812 L 18.199219 17.890625 L 18.152344 17.898438 L 18.105469 17.902344 L 18.007812 17.902344 L 17.96875 17.894531 L 17.925781 17.890625 L 17.886719 17.882812 L 17.851562 17.867188 L 17.8125 17.855469 L 17.777344 17.835938 L 17.746094 17.816406 L 17.707031 17.792969 L 17.679688 17.769531 L 17.652344 17.742188 L 17.621094 17.71875 L 17.566406 17.65625 L 17.542969 17.621094 L 17.523438 17.585938 L 17.5 17.546875 L 17.480469 17.511719 L 17.460938 17.472656 L 17.425781 17.390625 L 17.414062 17.347656 L 17.398438 17.300781 L 17.386719 17.257812 L 17.378906 17.214844 L 17.367188 17.164062 L 17.363281 17.117188 L 17.347656 17.023438 L 17.347656 16.972656 L 17.34375 16.875 L 17.34375 16.800781 L 17.347656 16.722656 L 17.363281 16.648438 L 17.375 16.574219 L 17.382812 16.535156 L 17.390625 16.5 L 17.40625 16.46875 L 17.417969 16.429688 L 17.429688 16.398438 L 17.480469 16.300781 L 17.503906 16.273438 L 17.523438 16.242188 L 17.542969 16.214844 L 17.570312 16.1875 L 17.621094 16.140625 L 17.683594 16.101562 L 17.71875 16.085938 L 17.75 16.070312 L 17.789062 16.054688 L 17.828125 16.046875 L 17.910156 16.03125 C 17.984375 16.023438 18.058594 16.023438 18.128906 16.039062 Z M 5.03125 14.601562 L 4.976562 14.601562 L 4.925781 14.597656 L 4.902344 14.59375 L 4.875 14.589844 L 4.859375 14.585938 L 4.839844 14.578125 L 4.820312 14.566406 L 4.804688 14.554688 L 4.789062 14.539062 L 4.769531 14.5 L 4.765625 14.476562 L 4.757812 14.449219 L 4.757812 12.308594 L 4.753906 12.265625 L 4.75 12.253906 L 4.746094 12.246094 L 4.738281 12.238281 L 4.726562 12.234375 L 4.695312 12.234375 L 4.675781 12.238281 L 4.621094 12.261719 L 4.601562 12.269531 L 4.558594 12.289062 L 4.417969 12.335938 L 4.234375 12.398438 L 4.039062 12.457031 L 4.039062 12.546875 L 4.109375 12.582031 L 4.167969 12.617188 L 4.214844 12.652344 L 4.238281 12.667969 L 4.253906 12.6875 L 4.269531 12.710938 L 4.285156 12.730469 L 4.296875 12.757812 L 4.304688 12.78125 L 4.3125 12.8125 L 4.316406 12.847656 L 4.320312 12.886719 L 4.320312 14.449219 L 4.316406 14.476562 L 4.3125 14.5 L 4.292969 14.539062 L 4.265625 14.566406 L 4.246094 14.578125 L 4.230469 14.585938 L 4.1875 14.59375 L 4.164062 14.597656 L 4.113281 14.601562 L 3.953125 14.601562 L 3.953125 14.742188 L 4.253906 14.734375 L 4.40625 14.730469 L 4.546875 14.730469 L 4.695312 14.734375 L 4.839844 14.734375 L 4.984375 14.742188 L 5.125 14.742188 L 5.125 14.601562 Z M 22.757812 17.09375 L 22.242188 17.09375 L 22.5 16.296875 Z M 23.632812 17.90625 L 23.597656 17.902344 L 23.566406 17.898438 L 23.542969 17.890625 L 23.515625 17.878906 L 23.496094 17.863281 L 23.476562 17.84375 L 23.460938 17.820312 L 23.449219 17.792969 L 23.417969 17.726562 L 23.394531 17.648438 L 23.339844 17.492188 L 22.796875 15.941406 L 22.78125 15.902344 L 22.769531 15.863281 L 22.757812 15.855469 L 22.742188 15.847656 L 22.738281 15.847656 L 22.71875 15.851562 L 22.707031 15.855469 L 22.652344 15.882812 L 22.585938 15.917969 L 22.511719 15.953125 L 22.472656 15.96875 L 22.4375 15.980469 L 22.425781 16.023438 L 22.414062 16.074219 L 22.382812 16.175781 L 22.351562 16.269531 L 22.320312 16.359375 L 21.851562 17.722656 L 21.839844 17.742188 L 21.832031 17.765625 L 21.820312 17.78125 L 21.808594 17.800781 L 21.792969 17.816406 L 21.78125 17.832031 L 21.753906 17.855469 L 21.734375 17.867188 L 21.71875 17.878906 L 21.699219 17.886719 L 21.683594 17.894531 L 21.644531 17.902344 L 21.621094 17.90625 L 21.574219 17.90625 L 21.574219 18.023438 L 21.585938 18.019531 L 21.746094 18.011719 L 21.828125 18.007812 L 21.992188 18.007812 L 22.261719 18.019531 L 22.273438 18.023438 L 22.273438 17.90625 L 22.191406 17.90625 L 22.15625 17.898438 L 22.117188 17.894531 L 22.085938 17.886719 L 22.074219 17.882812 L 22.039062 17.859375 L 22.03125 17.847656 L 22.027344 17.839844 L 22.023438 17.828125 L 22.019531 17.8125 L 22.027344 17.773438 L 22.042969 17.71875 L 22.0625 17.660156 L 22.085938 17.585938 L 22.175781 17.285156 L 22.828125 17.285156 L 22.941406 17.621094 L 22.984375 17.75 L 22.996094 17.796875 L 22.996094 17.816406 L 23 17.832031 L 22.996094 17.84375 L 22.996094 17.851562 L 22.992188 17.859375 L 22.976562 17.875 L 22.964844 17.882812 L 22.941406 17.890625 L 22.914062 17.894531 L 22.886719 17.902344 L 22.855469 17.90625 L 22.785156 17.90625 L 22.785156 18.023438 L 22.796875 18.019531 L 23.023438 18.011719 L 23.132812 18.007812 L 23.34375 18.007812 L 23.449219 18.011719 L 23.648438 18.019531 L 23.660156 18.023438 L 23.660156 17.90625 Z M 4.808594 11.121094 L 4.800781 11.175781 L 4.796875 11.199219 L 4.785156 11.226562 L 4.777344 11.246094 L 4.765625 11.269531 L 4.746094 11.292969 L 4.726562 11.308594 L 4.710938 11.324219 L 4.691406 11.339844 L 4.667969 11.355469 L 4.648438 11.363281 L 4.621094 11.375 L 4.597656 11.382812 L 4.570312 11.386719 L 4.515625 11.386719 L 4.488281 11.382812 L 4.460938 11.375 L 4.4375 11.363281 L 4.417969 11.355469 L 4.375 11.324219 L 4.355469 11.308594 L 4.339844 11.292969 L 4.324219 11.269531 L 4.3125 11.246094 L 4.296875 11.226562 L 4.289062 11.199219 L 4.28125 11.175781 L 4.277344 11.148438 L 4.277344 11.09375 L 4.28125 11.066406 L 4.289062 11.042969 L 4.296875 11.015625 L 4.3125 10.992188 L 4.324219 10.972656 L 4.339844 10.949219 L 4.355469 10.929688 L 4.394531 10.898438 L 4.4375 10.875 L 4.460938 10.863281 L 4.515625 10.855469 L 4.570312 10.855469 L 4.597656 10.859375 L 4.621094 10.863281 L 4.648438 10.875 L 4.667969 10.886719 L 4.691406 10.898438 L 4.710938 10.914062 L 4.746094 10.949219 L 4.765625 10.972656 L 4.777344 10.992188 L 4.785156 11.015625 L 4.796875 11.042969 L 4.800781 11.066406 L 4.804688 11.09375 L 4.804688 11.121094 Z M 13.09375 17.09375 L 12.578125 17.09375 L 12.835938 16.296875 Z M 13.96875 17.90625 L 13.933594 17.902344 L 13.90625 17.898438 L 13.875 17.890625 L 13.855469 17.878906 L 13.832031 17.863281 L 13.8125 17.84375 L 13.796875 17.820312 L 13.78125 17.792969 L 13.757812 17.726562 L 13.726562 17.648438 L 13.675781 17.492188 L 13.132812 15.941406 L 13.101562 15.863281 L 13.09375 15.855469 L 13.078125 15.847656 L 13.070312 15.847656 L 13.054688 15.851562 L 13.046875 15.855469 L 12.988281 15.882812 L 12.921875 15.917969 L 12.847656 15.953125 L 12.808594 15.96875 L 12.773438 15.980469 L 12.761719 16.023438 L 12.75 16.074219 L 12.722656 16.175781 L 12.6875 16.269531 L 12.65625 16.359375 L 12.183594 17.722656 L 12.175781 17.742188 L 12.164062 17.765625 L 12.152344 17.78125 L 12.128906 17.816406 L 12.117188 17.832031 L 12.105469 17.84375 L 12.070312 17.867188 L 12.054688 17.878906 L 12.015625 17.894531 L 11.980469 17.902344 L 11.960938 17.90625 L 11.910156 17.90625 L 11.910156 18.023438 L 11.921875 18.019531 L 12.082031 18.011719 L 12.160156 18.007812 L 12.328125 18.007812 L 12.597656 18.019531 L 12.613281 18.023438 L 12.613281 17.90625 L 12.527344 17.90625 L 12.457031 17.894531 L 12.410156 17.882812 L 12.394531 17.875 L 12.386719 17.867188 L 12.375 17.859375 L 12.367188 17.847656 L 12.363281 17.839844 L 12.359375 17.828125 L 12.355469 17.8125 L 12.363281 17.773438 L 12.375 17.71875 L 12.398438 17.660156 L 12.421875 17.585938 L 12.511719 17.285156 L 13.164062 17.285156 L 13.277344 17.621094 L 13.320312 17.75 L 13.332031 17.796875 L 13.335938 17.816406 L 13.335938 17.832031 L 13.332031 17.851562 L 13.324219 17.859375 L 13.320312 17.867188 L 13.3125 17.875 L 13.300781 17.882812 L 13.277344 17.890625 L 13.25 17.894531 L 13.222656 17.902344 L 13.195312 17.90625 L 13.121094 17.90625 L 13.121094 18.023438 L 13.132812 18.019531 L 13.359375 18.011719 L 13.46875 18.007812 L 13.683594 18.007812 L 13.78125 18.011719 L 13.984375 18.019531 L 14 18.023438 L 14 17.90625 Z M 25.367188 16.429688 C 25.34375 16.429688 25.316406 16.421875 25.289062 16.414062 C 25.265625 16.402344 25.242188 16.390625 25.21875 16.375 C 25.15625 16.324219 25.117188 16.246094 25.117188 16.164062 C 25.117188 16.109375 25.132812 16.054688 25.164062 16.007812 C 25.195312 15.964844 25.238281 15.933594 25.289062 15.914062 C 25.34375 15.894531 25.398438 15.894531 25.449219 15.914062 C 25.5 15.933594 25.542969 15.964844 25.574219 16.007812 C 25.621094 16.078125 25.636719 16.164062 25.609375 16.246094 C 25.585938 16.324219 25.523438 16.382812 25.449219 16.414062 C 25.425781 16.421875 25.398438 16.429688 25.367188 16.429688 Z M 25.367188 16.476562 C 25.4375 16.476562 25.5 16.453125 25.550781 16.414062 C 25.574219 16.398438 25.597656 16.375 25.617188 16.347656 C 25.652344 16.292969 25.675781 16.230469 25.675781 16.164062 C 25.675781 16.128906 25.667969 16.097656 25.660156 16.0625 C 25.640625 16 25.601562 15.945312 25.550781 15.90625 C 25.5 15.867188 25.4375 15.851562 25.367188 15.851562 C 25.335938 15.851562 25.304688 15.855469 25.273438 15.863281 C 25.183594 15.894531 25.109375 15.96875 25.082031 16.0625 C 25.070312 16.097656 25.066406 16.128906 25.066406 16.164062 C 25.066406 16.199219 25.070312 16.230469 25.082031 16.261719 C 25.089844 16.292969 25.105469 16.320312 25.125 16.347656 C 25.160156 16.398438 25.214844 16.441406 25.273438 16.460938 C 25.304688 16.46875 25.335938 16.476562 25.367188 16.476562 Z M 25.324219 16.007812 L 25.363281 16.007812 C 25.375 16.007812 25.386719 16.011719 25.398438 16.015625 C 25.40625 16.019531 25.417969 16.027344 25.425781 16.039062 C 25.429688 16.046875 25.433594 16.0625 25.433594 16.078125 C 25.433594 16.101562 25.425781 16.125 25.417969 16.136719 C 25.40625 16.152344 25.386719 16.160156 25.367188 16.160156 L 25.324219 16.160156 Z M 25.226562 16.003906 C 25.238281 16.003906 25.246094 16.007812 25.25 16.007812 C 25.257812 16.007812 25.261719 16.007812 25.265625 16.011719 C 25.265625 16.015625 25.265625 16.019531 25.269531 16.023438 C 25.269531 16.03125 25.269531 16.042969 25.269531 16.050781 L 25.269531 16.261719 C 25.269531 16.273438 25.269531 16.28125 25.269531 16.285156 C 25.265625 16.292969 25.265625 16.296875 25.265625 16.296875 C 25.261719 16.300781 25.257812 16.304688 25.25 16.304688 C 25.246094 16.304688 25.238281 16.304688 25.226562 16.308594 L 25.226562 16.328125 L 25.367188 16.328125 L 25.367188 16.308594 C 25.359375 16.304688 25.351562 16.304688 25.339844 16.304688 C 25.339844 16.304688 25.332031 16.300781 25.328125 16.296875 C 25.324219 16.296875 25.324219 16.292969 25.324219 16.285156 C 25.324219 16.28125 25.324219 16.273438 25.324219 16.261719 L 25.324219 16.179688 L 25.371094 16.179688 C 25.386719 16.203125 25.398438 16.21875 25.410156 16.242188 L 25.4375 16.285156 C 25.449219 16.296875 25.457031 16.308594 25.460938 16.316406 C 25.46875 16.324219 25.476562 16.328125 25.484375 16.328125 L 25.539062 16.328125 L 25.539062 16.320312 C 25.53125 16.3125 25.523438 16.304688 25.515625 16.300781 C 25.5 16.28125 25.480469 16.261719 25.464844 16.242188 L 25.414062 16.167969 C 25.425781 16.164062 25.441406 16.15625 25.449219 16.148438 C 25.460938 16.140625 25.472656 16.128906 25.480469 16.117188 C 25.488281 16.101562 25.488281 16.089844 25.488281 16.074219 C 25.488281 16.046875 25.476562 16.023438 25.457031 16.011719 C 25.445312 16.003906 25.433594 16 25.421875 15.996094 C 25.40625 15.992188 25.394531 15.988281 25.382812 15.988281 L 25.226562 15.988281 Z M 25.226562 16.003906 "/>
<path style=" stroke:none;fill-rule:evenodd;fill:rgb(1.176471%,36.078431%,63.529412%);fill-opacity:1;" d="M 11.910156 10.601562 C 9.03125 10.601562 6.703125 8.25 6.703125 5.355469 C 6.699219 2.457031 9.03125 0.109375 11.910156 0.109375 L 13.359375 0.109375 C 16.238281 0.109375 18.570312 2.457031 18.570312 5.355469 C 18.570312 8.25 16.238281 10.601562 13.359375 10.601562 Z M 11.910156 10.601562 "/>
<path style=" stroke:none;fill-rule:evenodd;fill:rgb(99.607843%,99.607843%,99.607843%);fill-opacity:1;" d="M 11.882812 0.621094 L 11.757812 0.621094 L 11.636719 0.628906 L 11.515625 0.632812 L 11.398438 0.644531 L 11.277344 0.65625 L 11.164062 0.671875 L 10.929688 0.71875 L 10.816406 0.738281 L 10.703125 0.773438 L 10.585938 0.800781 L 10.480469 0.835938 L 10.367188 0.867188 L 10.152344 0.945312 L 10.042969 0.992188 L 9.9375 1.039062 L 9.632812 1.191406 L 9.535156 1.246094 L 9.433594 1.304688 L 9.339844 1.367188 L 9.242188 1.429688 L 9.148438 1.496094 L 9.058594 1.558594 L 8.96875 1.632812 L 8.796875 1.773438 L 8.625 1.929688 L 8.542969 2.007812 L 8.46875 2.089844 L 8.386719 2.175781 L 8.316406 2.257812 L 8.242188 2.347656 L 8.171875 2.429688 L 8.101562 2.523438 L 8.035156 2.613281 L 7.96875 2.710938 L 7.90625 2.808594 L 7.847656 2.902344 L 7.789062 3 L 7.730469 3.101562 L 7.628906 3.304688 L 7.582031 3.40625 L 7.535156 3.515625 L 7.449219 3.730469 L 7.410156 3.835938 L 7.34375 4.0625 L 7.3125 4.175781 L 7.285156 4.289062 L 7.261719 4.40625 L 7.238281 4.519531 L 7.21875 4.640625 L 7.1875 4.875 L 7.167969 5.113281 L 7.164062 5.238281 L 7.164062 5.484375 L 7.167969 5.601562 L 7.179688 5.726562 L 7.1875 5.84375 L 7.203125 5.964844 L 7.21875 6.082031 L 7.238281 6.199219 L 7.261719 6.3125 L 7.285156 6.429688 L 7.3125 6.546875 L 7.34375 6.65625 L 7.378906 6.769531 L 7.410156 6.878906 L 7.449219 6.988281 L 7.535156 7.203125 L 7.628906 7.414062 L 7.730469 7.617188 L 7.847656 7.816406 L 7.90625 7.914062 L 7.96875 8.007812 L 8.101562 8.195312 L 8.242188 8.375 L 8.316406 8.460938 L 8.386719 8.546875 L 8.46875 8.628906 L 8.542969 8.710938 L 8.625 8.792969 L 8.710938 8.867188 L 8.96875 9.078125 L 9.058594 9.148438 L 9.148438 9.214844 L 9.242188 9.28125 L 9.339844 9.34375 L 9.433594 9.402344 L 9.535156 9.460938 L 9.632812 9.519531 L 9.9375 9.671875 L 10.042969 9.714844 L 10.152344 9.761719 L 10.367188 9.839844 L 10.480469 9.878906 L 10.585938 9.910156 L 10.703125 9.941406 L 10.816406 9.96875 L 11.046875 10.015625 L 11.164062 10.035156 L 11.277344 10.054688 L 11.398438 10.066406 L 11.515625 10.074219 L 11.636719 10.085938 L 11.882812 10.089844 L 12.003906 10.085938 L 12.121094 10.085938 L 12.363281 10.066406 L 12.480469 10.054688 L 12.597656 10.035156 L 12.71875 10.015625 L 12.828125 9.992188 L 12.945312 9.96875 L 13.058594 9.941406 L 13.171875 9.910156 L 13.285156 9.875 L 13.390625 9.839844 L 13.609375 9.761719 L 13.820312 9.671875 L 13.925781 9.621094 L 14.128906 9.519531 L 14.226562 9.460938 L 14.328125 9.402344 L 14.421875 9.34375 L 14.519531 9.28125 L 14.613281 9.214844 L 14.703125 9.148438 L 14.792969 9.078125 L 14.878906 9.007812 L 14.96875 8.9375 L 15.050781 8.867188 L 15.132812 8.792969 L 15.214844 8.710938 L 15.371094 8.546875 L 15.445312 8.460938 L 15.523438 8.375 L 15.589844 8.285156 L 15.660156 8.195312 L 15.726562 8.101562 L 15.789062 8.007812 L 15.855469 7.914062 L 15.972656 7.71875 L 16.027344 7.617188 L 16.128906 7.414062 L 16.226562 7.203125 L 16.269531 7.097656 L 16.347656 6.878906 L 16.382812 6.769531 L 16.417969 6.65625 L 16.445312 6.546875 L 16.476562 6.429688 L 16.5 6.3125 L 16.523438 6.199219 L 16.542969 6.082031 L 16.558594 5.964844 L 16.582031 5.726562 L 16.589844 5.601562 L 16.59375 5.484375 L 16.597656 5.359375 L 16.59375 5.238281 L 16.589844 5.113281 L 16.582031 4.996094 L 16.558594 4.757812 L 16.542969 4.640625 L 16.523438 4.519531 L 16.476562 4.289062 L 16.445312 4.175781 L 16.417969 4.0625 L 16.347656 3.835938 L 16.269531 3.625 L 16.226562 3.515625 L 16.179688 3.40625 L 16.027344 3.101562 L 15.972656 3 L 15.914062 2.902344 L 15.855469 2.808594 L 15.789062 2.710938 L 15.726562 2.613281 L 15.660156 2.523438 L 15.589844 2.429688 L 15.523438 2.347656 L 15.445312 2.257812 L 15.371094 2.175781 L 15.292969 2.089844 L 15.214844 2.007812 L 14.96875 1.773438 L 14.878906 1.703125 L 14.792969 1.632812 L 14.703125 1.558594 L 14.613281 1.496094 L 14.519531 1.429688 L 14.421875 1.367188 L 14.328125 1.304688 L 14.226562 1.246094 L 14.128906 1.191406 L 13.925781 1.089844 L 13.820312 1.039062 L 13.609375 0.945312 L 13.390625 0.867188 L 13.285156 0.835938 L 13.171875 0.800781 L 13.058594 0.773438 L 12.945312 0.738281 L 12.828125 0.71875 L 12.71875 0.695312 L 12.597656 0.671875 L 12.480469 0.65625 L 12.363281 0.644531 L 12.242188 0.632812 L 12.121094 0.628906 L 12.003906 0.621094 Z M 11.882812 0.621094 "/>
<path style=" stroke:none;fill-rule:evenodd;fill:rgb(1.176471%,36.078431%,63.529412%);fill-opacity:1;" d="M 10.808594 8.160156 L 10.804688 8.15625 L 10.796875 8.152344 L 10.792969 8.152344 L 10.789062 8.148438 L 10.777344 8.148438 L 10.769531 8.140625 L 10.761719 8.140625 L 10.753906 8.132812 L 10.746094 8.132812 L 10.746094 8.128906 L 10.730469 8.128906 L 10.722656 8.121094 L 10.714844 8.121094 L 10.710938 8.113281 L 10.695312 8.113281 L 10.691406 8.109375 L 10.6875 8.109375 L 10.679688 8.101562 L 10.675781 8.101562 L 10.671875 8.097656 L 10.664062 8.097656 L 10.65625 8.09375 L 10.652344 8.089844 L 10.644531 8.089844 L 10.636719 8.082031 L 10.628906 8.082031 L 10.621094 8.074219 L 10.613281 8.074219 L 10.605469 8.070312 L 10.601562 8.066406 L 10.59375 8.066406 L 10.589844 8.0625 L 10.585938 8.0625 L 10.578125 8.054688 L 10.570312 8.054688 L 10.566406 8.050781 L 10.558594 8.050781 L 10.554688 8.042969 L 10.546875 8.042969 L 10.542969 8.039062 L 10.539062 8.039062 L 10.53125 8.03125 L 10.523438 8.03125 L 10.519531 8.027344 L 10.519531 8.023438 L 10.511719 8.023438 L 10.503906 8.015625 L 10.492188 8.015625 L 10.492188 8.011719 L 10.488281 8.011719 L 10.476562 8.003906 L 10.46875 8.003906 L 10.46875 8 L 10.460938 7.996094 L 10.457031 7.996094 L 10.453125 7.992188 L 10.449219 7.992188 L 10.445312 7.988281 L 10.445312 7.984375 L 10.4375 7.984375 L 10.433594 7.980469 L 10.429688 7.980469 L 10.425781 7.976562 L 10.417969 7.972656 L 10.414062 7.972656 L 10.410156 7.96875 L 10.410156 7.964844 L 10.402344 7.964844 L 10.398438 7.960938 L 10.394531 7.960938 L 10.386719 7.953125 L 10.375 7.953125 L 10.367188 7.941406 L 10.363281 7.941406 L 10.355469 7.933594 L 10.347656 7.933594 L 10.34375 7.929688 L 10.339844 7.929688 L 10.339844 7.925781 L 10.335938 7.925781 L 10.332031 7.917969 L 10.320312 7.917969 L 10.308594 7.90625 L 10.300781 7.90625 L 10.28125 7.886719 L 10.269531 7.886719 L 10.269531 7.882812 L 10.265625 7.878906 L 10.257812 7.875 L 10.25 7.875 L 10.25 7.871094 L 10.246094 7.867188 L 10.238281 7.863281 L 10.230469 7.855469 L 10.222656 7.855469 L 10.207031 7.839844 L 10.203125 7.839844 L 10.199219 7.835938 L 10.195312 7.835938 L 10.195312 7.832031 L 10.191406 7.828125 L 10.183594 7.828125 L 10.179688 7.824219 L 10.179688 7.820312 L 10.171875 7.820312 L 10.152344 7.800781 L 10.148438 7.800781 L 10.136719 7.789062 L 10.128906 7.789062 L 10.128906 7.785156 L 10.121094 7.78125 L 10.117188 7.777344 L 10.113281 7.777344 L 10.097656 7.761719 L 10.09375 7.761719 L 10.082031 7.75 L 10.078125 7.75 L 10.070312 7.742188 L 10.066406 7.742188 L 10.066406 7.738281 L 10.058594 7.738281 L 10.054688 7.730469 L 10.050781 7.726562 L 10.046875 7.726562 L 10.042969 7.722656 L 10.035156 7.71875 L 10.035156 7.714844 L 10.03125 7.710938 L 10.027344 7.710938 L 10.023438 7.707031 L 10.023438 7.703125 L 10.015625 7.699219 L 10.011719 7.699219 L 10.011719 7.695312 L 10.007812 7.695312 L 10.003906 7.691406 L 10 7.691406 L 10 7.683594 L 9.992188 7.683594 L 9.992188 7.679688 L 9.988281 7.679688 L 9.984375 7.675781 L 9.980469 7.667969 L 9.972656 7.664062 L 9.96875 7.660156 L 9.957031 7.652344 L 9.949219 7.644531 L 9.945312 7.644531 L 9.9375 7.636719 L 9.9375 7.632812 L 9.929688 7.632812 L 9.929688 7.628906 L 9.925781 7.621094 L 9.917969 7.621094 L 9.914062 7.613281 L 9.910156 7.613281 L 9.90625 7.605469 L 9.902344 7.601562 L 9.898438 7.601562 L 9.886719 7.589844 L 9.878906 7.585938 L 9.878906 7.582031 L 9.875 7.582031 L 9.875 7.578125 L 9.863281 7.566406 L 9.859375 7.566406 L 9.859375 7.5625 L 9.855469 7.5625 L 9.84375 7.550781 L 9.84375 7.546875 L 9.835938 7.546875 L 9.832031 7.539062 L 9.816406 7.523438 L 9.8125 7.523438 L 9.804688 7.515625 L 9.804688 7.511719 L 9.800781 7.507812 L 9.796875 7.507812 L 9.789062 7.5 L 9.789062 7.496094 L 9.78125 7.492188 L 9.773438 7.484375 L 9.773438 7.480469 L 9.769531 7.476562 L 9.738281 7.449219 L 9.734375 7.445312 L 9.730469 7.4375 L 9.726562 7.433594 L 9.71875 7.429688 L 9.71875 7.425781 L 9.714844 7.417969 L 9.710938 7.417969 L 9.703125 7.410156 L 9.703125 7.40625 L 9.699219 7.40625 L 9.691406 7.398438 L 9.683594 7.386719 L 9.675781 7.382812 L 9.671875 7.375 L 9.667969 7.371094 L 9.664062 7.371094 L 9.664062 7.367188 L 9.660156 7.359375 L 9.65625 7.359375 L 9.648438 7.351562 L 9.648438 7.347656 L 9.621094 7.320312 L 9.617188 7.3125 L 9.609375 7.304688 L 9.609375 7.300781 L 9.601562 7.296875 L 9.601562 7.292969 L 9.597656 7.289062 L 9.59375 7.289062 L 9.589844 7.28125 L 9.578125 7.269531 L 9.578125 7.265625 L 9.566406 7.253906 L 9.566406 7.25 L 9.5625 7.25 L 9.5625 7.246094 L 9.558594 7.242188 L 9.554688 7.242188 L 9.554688 7.238281 L 9.550781 7.234375 L 9.550781 7.230469 L 9.546875 7.226562 L 9.542969 7.226562 L 9.539062 7.222656 L 9.535156 7.214844 L 9.535156 7.210938 L 9.527344 7.210938 L 9.527344 7.203125 L 9.523438 7.199219 L 9.523438 7.195312 L 9.519531 7.191406 L 9.515625 7.191406 L 9.511719 7.183594 L 9.5 7.171875 L 9.492188 7.15625 L 9.484375 7.152344 L 9.484375 7.144531 L 9.480469 7.144531 L 9.476562 7.136719 L 9.472656 7.132812 L 9.472656 7.128906 L 9.464844 7.125 L 9.464844 7.121094 L 9.453125 7.109375 L 9.453125 7.105469 L 9.441406 7.09375 L 9.441406 7.085938 L 9.433594 7.082031 L 9.433594 7.078125 L 9.429688 7.074219 L 9.429688 7.070312 L 9.417969 7.058594 L 9.417969 7.050781 L 9.402344 7.035156 L 9.402344 7.03125 L 9.398438 7.027344 L 9.398438 7.019531 L 9.386719 7.011719 L 9.386719 7.007812 L 9.378906 7 L 9.378906 6.996094 L 9.375 6.988281 L 9.363281 6.976562 L 9.363281 6.96875 L 9.359375 6.96875 L 9.359375 6.964844 L 9.355469 6.960938 L 9.347656 6.949219 L 9.347656 6.941406 L 9.34375 6.941406 L 9.34375 6.9375 L 9.332031 6.925781 L 9.332031 6.921875 L 9.324219 6.914062 L 9.324219 6.90625 L 9.316406 6.898438 L 9.3125 6.890625 L 9.308594 6.886719 L 9.308594 6.878906 L 9.300781 6.871094 L 9.296875 6.871094 L 9.296875 6.863281 L 9.292969 6.859375 L 9.289062 6.851562 L 9.289062 6.847656 L 9.285156 6.84375 L 9.277344 6.832031 L 9.277344 6.828125 L 9.273438 6.824219 L 9.273438 6.820312 L 9.269531 6.816406 L 9.269531 6.8125 L 9.265625 6.8125 L 9.265625 6.804688 L 9.261719 6.804688 L 9.261719 6.800781 L 9.257812 6.792969 L 9.253906 6.789062 L 9.253906 6.785156 L 9.25 6.78125 L 9.25 6.777344 L 9.242188 6.765625 L 9.238281 6.761719 L 9.238281 6.753906 L 9.230469 6.746094 L 9.230469 6.742188 L 9.222656 6.734375 L 9.222656 6.726562 L 9.21875 6.722656 L 9.21875 6.714844 L 9.210938 6.707031 L 9.210938 6.703125 L 9.207031 6.699219 L 9.207031 6.691406 L 9.199219 6.683594 L 9.199219 6.679688 L 9.191406 6.671875 L 9.191406 6.664062 L 9.1875 6.660156 L 9.1875 6.652344 L 9.183594 6.648438 L 9.183594 6.644531 L 9.175781 6.636719 L 9.175781 6.628906 L 9.171875 6.628906 L 9.171875 6.625 L 9.167969 6.621094 L 9.167969 6.609375 L 9.164062 6.609375 L 9.164062 6.601562 L 9.160156 6.597656 L 9.15625 6.597656 L 9.15625 6.589844 L 9.152344 6.585938 L 9.152344 6.578125 L 9.148438 6.578125 L 9.148438 6.570312 L 9.144531 6.558594 L 9.140625 6.558594 L 9.140625 6.550781 L 9.136719 6.550781 L 9.136719 6.542969 L 9.132812 6.539062 L 9.132812 6.53125 L 9.128906 6.527344 L 9.128906 6.523438 L 9.125 6.519531 L 9.121094 6.511719 L 9.117188 6.507812 L 9.117188 6.5 L 9.113281 6.496094 L 9.113281 6.488281 L 9.109375 6.480469 L 9.105469 6.476562 L 9.105469 6.472656 L 9.101562 6.46875 L 9.101562 6.460938 L 9.097656 6.453125 L 9.097656 6.449219 L 9.09375 6.449219 L 9.09375 6.433594 L 9.089844 6.433594 L 9.089844 6.429688 L 9.085938 6.421875 L 9.085938 6.417969 L 9.082031 6.414062 L 9.082031 6.402344 L 9.078125 6.402344 L 9.078125 6.394531 L 9.074219 6.390625 L 9.074219 6.382812 L 9.070312 6.382812 L 9.070312 6.371094 L 9.066406 6.371094 L 9.066406 6.367188 L 9.0625 6.363281 L 9.0625 6.351562 L 9.058594 6.34375 L 9.058594 6.335938 L 9.050781 6.328125 L 9.050781 6.324219 L 9.046875 6.316406 L 9.046875 6.3125 L 9.042969 6.308594 L 9.042969 6.292969 L 9.039062 6.289062 L 9.039062 6.277344 L 9.035156 6.273438 L 9.03125 6.273438 L 9.03125 6.261719 L 9.027344 6.257812 L 9.027344 6.242188 L 9.023438 6.238281 L 9.023438 6.234375 L 9.019531 6.230469 L 9.019531 6.21875 L 9.015625 6.214844 L 9.015625 6.203125 L 9.011719 6.199219 L 9.011719 6.195312 L 9.007812 6.195312 L 9.007812 6.175781 L 9.003906 6.175781 L 9.003906 6.167969 L 9 6.167969 L 9 6.152344 L 8.996094 6.148438 L 8.996094 6.128906 L 8.992188 6.125 L 8.992188 6.121094 L 8.988281 6.117188 L 8.988281 6.101562 L 8.984375 6.101562 L 8.984375 6.089844 L 8.980469 6.085938 L 8.980469 6.078125 L 8.976562 6.078125 L 8.976562 6.0625 L 8.972656 6.058594 L 8.972656 6.042969 L 8.96875 6.042969 L 8.96875 6.027344 L 8.964844 6.023438 L 8.964844 6.003906 L 8.960938 6.003906 L 8.960938 6 L 8.957031 5.996094 L 8.957031 5.980469 L 8.953125 5.972656 L 8.953125 5.945312 L 8.949219 5.941406 L 8.949219 5.933594 L 8.945312 5.933594 L 8.945312 5.914062 L 8.941406 5.910156 L 8.941406 5.902344 L 8.9375 5.902344 L 8.9375 5.867188 L 8.933594 5.863281 L 8.933594 5.84375 L 8.929688 5.839844 L 8.929688 5.828125 L 8.925781 5.824219 L 8.925781 5.804688 L 8.921875 5.800781 L 8.921875 5.773438 L 8.917969 5.769531 L 8.917969 5.742188 L 8.914062 5.738281 L 8.914062 5.707031 L 8.910156 5.703125 L 8.910156 5.667969 L 8.90625 5.667969 L 8.90625 5.648438 L 8.902344 5.644531 L 8.902344 5.574219 L 8.898438 5.570312 L 8.898438 5.546875 L 8.894531 5.542969 L 8.894531 5.457031 L 8.890625 5.453125 L 8.890625 5.257812 L 8.894531 5.257812 L 8.894531 5.167969 L 8.898438 5.164062 L 8.898438 5.140625 L 8.902344 5.136719 L 8.902344 5.066406 L 8.90625 5.0625 L 8.90625 5.046875 L 8.910156 5.042969 L 8.910156 5.007812 L 8.914062 5.003906 L 8.914062 4.96875 L 8.917969 4.96875 L 8.917969 4.9375 L 8.921875 4.933594 L 8.921875 4.910156 L 8.925781 4.90625 L 8.925781 4.886719 L 8.929688 4.882812 L 8.929688 4.871094 L 8.933594 4.867188 L 8.933594 4.847656 L 8.9375 4.839844 L 8.9375 4.808594 L 8.941406 4.804688 L 8.941406 4.800781 L 8.945312 4.796875 L 8.945312 4.777344 L 8.949219 4.773438 L 8.949219 4.769531 L 8.953125 4.761719 L 8.953125 4.734375 L 8.957031 4.730469 L 8.957031 4.714844 L 8.960938 4.710938 L 8.960938 4.707031 L 8.964844 4.703125 L 8.964844 4.6875 L 8.96875 4.683594 L 8.96875 4.671875 L 8.972656 4.664062 L 8.972656 4.652344 L 8.976562 4.648438 L 8.976562 4.632812 L 8.980469 4.628906 L 8.980469 4.625 L 8.984375 4.621094 L 8.984375 4.609375 L 8.988281 4.605469 L 8.988281 4.59375 L 8.992188 4.589844 L 8.992188 4.585938 L 8.996094 4.582031 L 8.996094 4.566406 L 9 4.558594 L 9 4.546875 L 9.003906 4.539062 L 9.003906 4.535156 L 9.007812 4.535156 L 9.007812 4.515625 L 9.011719 4.515625 L 9.011719 4.511719 L 9.015625 4.507812 L 9.015625 4.496094 L 9.019531 4.492188 L 9.019531 4.480469 L 9.023438 4.476562 L 9.023438 4.472656 L 9.027344 4.46875 L 9.027344 4.449219 L 9.03125 4.449219 L 9.03125 4.4375 L 9.035156 4.433594 L 9.039062 4.433594 L 9.039062 4.421875 L 9.042969 4.410156 L 9.042969 4.402344 L 9.046875 4.398438 L 9.046875 4.394531 L 9.050781 4.390625 L 9.050781 4.382812 L 9.058594 4.375 L 9.058594 4.367188 L 9.0625 4.359375 L 9.0625 4.347656 L 9.066406 4.34375 L 9.066406 4.339844 L 9.070312 4.332031 L 9.070312 4.328125 L 9.082031 4.304688 L 9.082031 4.292969 L 9.089844 4.285156 L 9.089844 4.277344 L 9.09375 4.273438 L 9.09375 4.261719 L 9.097656 4.257812 L 9.097656 4.253906 L 9.101562 4.253906 L 9.101562 4.246094 L 9.105469 4.242188 L 9.105469 4.234375 L 9.109375 4.230469 L 9.109375 4.226562 L 9.113281 4.222656 L 9.113281 4.214844 L 9.117188 4.210938 L 9.117188 4.203125 L 9.125 4.195312 L 9.125 4.191406 L 9.128906 4.1875 L 9.128906 4.183594 L 9.132812 4.179688 L 9.132812 4.171875 L 9.136719 4.167969 L 9.136719 4.164062 L 9.144531 4.148438 L 9.144531 4.144531 L 9.148438 4.144531 L 9.148438 4.136719 L 9.152344 4.132812 L 9.152344 4.125 L 9.15625 4.125 L 9.15625 4.117188 L 9.160156 4.109375 L 9.164062 4.109375 L 9.164062 4.101562 L 9.167969 4.097656 L 9.167969 4.089844 L 9.171875 4.085938 L 9.171875 4.082031 L 9.175781 4.078125 L 9.175781 4.074219 L 9.179688 4.070312 L 9.179688 4.066406 L 9.1875 4.058594 L 9.1875 4.046875 L 9.191406 4.042969 L 9.191406 4.039062 L 9.199219 4.03125 L 9.199219 4.027344 L 9.207031 4.019531 L 9.207031 4.011719 L 9.210938 4.007812 L 9.210938 4 L 9.214844 3.996094 L 9.21875 3.996094 L 9.21875 3.988281 L 9.222656 3.984375 L 9.222656 3.980469 L 9.226562 3.976562 L 9.230469 3.96875 L 9.230469 3.964844 L 9.238281 3.957031 L 9.238281 3.949219 L 9.242188 3.941406 L 9.253906 3.929688 L 9.253906 3.921875 L 9.257812 3.917969 L 9.257812 3.914062 L 9.261719 3.910156 L 9.261719 3.90625 L 9.269531 3.898438 L 9.269531 3.894531 L 9.273438 3.890625 L 9.273438 3.882812 L 9.277344 3.882812 L 9.277344 3.878906 L 9.28125 3.875 L 9.28125 3.871094 L 9.289062 3.863281 L 9.289062 3.859375 L 9.292969 3.859375 L 9.292969 3.851562 L 9.296875 3.847656 L 9.296875 3.839844 L 9.308594 3.832031 L 9.308594 3.824219 L 9.316406 3.816406 L 9.316406 3.8125 L 9.320312 3.808594 L 9.320312 3.804688 L 9.324219 3.804688 L 9.324219 3.796875 L 9.328125 3.792969 L 9.328125 3.789062 L 9.335938 3.78125 L 9.339844 3.773438 L 9.34375 3.773438 L 9.347656 3.765625 L 9.347656 3.757812 L 9.351562 3.757812 L 9.355469 3.753906 L 9.359375 3.746094 L 9.359375 3.742188 L 9.363281 3.742188 L 9.363281 3.734375 L 9.367188 3.734375 L 9.367188 3.726562 L 9.378906 3.71875 L 9.378906 3.707031 L 9.386719 3.703125 L 9.386719 3.699219 L 9.390625 3.695312 L 9.394531 3.6875 L 9.398438 3.6875 L 9.398438 3.679688 L 9.402344 3.679688 L 9.402344 3.675781 L 9.417969 3.660156 L 9.417969 3.65625 L 9.421875 3.648438 L 9.429688 3.640625 L 9.429688 3.636719 L 9.433594 3.632812 L 9.433594 3.628906 L 9.445312 3.617188 L 9.453125 3.601562 L 9.464844 3.589844 L 9.464844 3.585938 L 9.472656 3.582031 L 9.472656 3.578125 L 9.480469 3.570312 L 9.480469 3.5625 L 9.484375 3.5625 L 9.492188 3.554688 L 9.492188 3.546875 L 9.496094 3.546875 L 9.503906 3.539062 L 9.503906 3.53125 L 9.527344 3.507812 L 9.527344 3.5 L 9.546875 3.480469 L 9.550781 3.480469 L 9.550781 3.476562 L 9.554688 3.472656 L 9.554688 3.46875 L 9.558594 3.46875 L 9.5625 3.464844 L 9.5625 3.460938 L 9.570312 3.453125 L 9.574219 3.445312 L 9.578125 3.445312 L 9.578125 3.441406 L 9.589844 3.429688 L 9.59375 3.421875 L 9.621094 3.394531 L 9.621094 3.390625 L 9.640625 3.371094 L 9.640625 3.367188 L 9.644531 3.367188 L 9.648438 3.363281 L 9.648438 3.359375 L 9.65625 3.351562 L 9.660156 3.351562 L 9.664062 3.34375 L 9.675781 3.328125 L 9.683594 3.324219 L 9.683594 3.316406 L 9.6875 3.316406 L 9.695312 3.3125 L 9.695312 3.304688 L 9.703125 3.304688 L 9.703125 3.300781 L 9.707031 3.296875 L 9.707031 3.292969 L 9.714844 3.289062 L 9.71875 3.285156 L 9.71875 3.28125 L 9.738281 3.261719 L 9.769531 3.234375 L 9.773438 3.230469 L 9.773438 3.226562 L 9.777344 3.21875 L 9.78125 3.21875 L 9.789062 3.214844 L 9.789062 3.210938 L 9.800781 3.199219 L 9.804688 3.199219 L 9.804688 3.195312 L 9.8125 3.1875 L 9.816406 3.1875 L 9.828125 3.171875 L 9.832031 3.171875 L 9.832031 3.167969 L 9.835938 3.164062 L 9.84375 3.160156 L 9.859375 3.144531 L 9.859375 3.140625 L 9.867188 3.140625 L 9.894531 3.113281 L 9.894531 3.109375 L 9.902344 3.109375 L 9.90625 3.105469 L 9.90625 3.101562 L 9.914062 3.09375 L 9.917969 3.09375 L 9.917969 3.089844 L 9.925781 3.089844 L 9.929688 3.082031 L 9.929688 3.078125 L 9.9375 3.078125 L 9.941406 3.070312 L 9.953125 3.058594 L 9.957031 3.058594 L 9.972656 3.042969 L 9.980469 3.042969 L 9.992188 3.027344 L 10 3.023438 L 10 3.019531 L 10.003906 3.015625 L 10.007812 3.015625 L 10.011719 3.011719 L 10.015625 3.011719 L 10.03125 2.996094 L 10.035156 2.996094 L 10.035156 2.992188 L 10.042969 2.988281 L 10.058594 2.972656 L 10.066406 2.972656 L 10.070312 2.964844 L 10.074219 2.964844 L 10.074219 2.960938 L 10.082031 2.960938 L 10.09375 2.945312 L 10.097656 2.945312 L 10.113281 2.933594 L 10.117188 2.933594 L 10.121094 2.925781 L 10.128906 2.925781 L 10.128906 2.921875 L 10.132812 2.921875 L 10.136719 2.917969 L 10.140625 2.917969 L 10.160156 2.898438 L 10.164062 2.898438 L 10.171875 2.890625 L 10.179688 2.886719 L 10.179688 2.882812 L 10.191406 2.882812 L 10.195312 2.878906 L 10.195312 2.875 L 10.199219 2.875 L 10.203125 2.867188 L 10.207031 2.867188 L 10.210938 2.863281 L 10.214844 2.863281 L 10.21875 2.859375 L 10.222656 2.859375 L 10.230469 2.851562 L 10.234375 2.851562 L 10.234375 2.847656 L 10.238281 2.847656 L 10.246094 2.84375 L 10.25 2.839844 L 10.25 2.835938 L 10.257812 2.835938 L 10.265625 2.832031 L 10.265625 2.828125 L 10.269531 2.828125 L 10.269531 2.824219 L 10.273438 2.820312 L 10.28125 2.820312 L 10.289062 2.816406 L 10.296875 2.808594 L 10.308594 2.804688 L 10.320312 2.792969 L 10.324219 2.792969 L 10.328125 2.789062 L 10.332031 2.789062 L 10.332031 2.785156 L 10.335938 2.785156 L 10.339844 2.78125 L 10.34375 2.78125 L 10.347656 2.777344 L 10.351562 2.777344 L 10.359375 2.769531 L 10.367188 2.769531 L 10.375 2.757812 L 10.382812 2.757812 L 10.386719 2.753906 L 10.390625 2.753906 L 10.394531 2.75 L 10.398438 2.75 L 10.40625 2.742188 L 10.410156 2.742188 L 10.410156 2.738281 L 10.417969 2.738281 L 10.425781 2.734375 L 10.429688 2.730469 L 10.433594 2.730469 L 10.4375 2.726562 L 10.445312 2.722656 L 10.449219 2.71875 L 10.453125 2.71875 L 10.460938 2.710938 L 10.464844 2.710938 L 10.472656 2.703125 L 10.480469 2.703125 L 10.488281 2.699219 L 10.492188 2.699219 L 10.492188 2.695312 L 10.5 2.691406 L 10.503906 2.691406 L 10.507812 2.6875 L 10.519531 2.6875 L 10.519531 2.683594 L 10.523438 2.679688 L 10.527344 2.679688 L 10.535156 2.671875 L 10.542969 2.671875 L 10.550781 2.664062 L 10.554688 2.664062 L 10.558594 2.660156 L 10.566406 2.660156 L 10.574219 2.652344 L 10.582031 2.652344 L 10.585938 2.648438 L 10.59375 2.648438 L 10.597656 2.640625 L 10.605469 2.640625 L 10.613281 2.636719 L 10.617188 2.632812 L 10.621094 2.632812 L 10.628906 2.625 L 10.640625 2.625 L 10.644531 2.621094 L 10.652344 2.621094 L 10.65625 2.617188 L 10.664062 2.613281 L 10.667969 2.609375 L 10.675781 2.609375 L 10.679688 2.605469 L 10.683594 2.605469 L 10.6875 2.601562 L 10.691406 2.601562 L 10.695312 2.597656 L 10.699219 2.597656 L 10.707031 2.59375 L 10.710938 2.59375 L 10.710938 2.589844 L 10.71875 2.589844 L 10.722656 2.585938 L 10.730469 2.582031 L 10.738281 2.582031 L 10.742188 2.578125 L 10.746094 2.578125 L 10.75 2.574219 L 10.757812 2.574219 L 10.761719 2.570312 L 10.765625 2.570312 L 10.769531 2.566406 L 10.773438 2.566406 L 10.777344 2.5625 L 10.789062 2.5625 L 10.792969 2.558594 L 10.796875 2.558594 L 10.796875 2.554688 L 10.804688 2.554688 L 10.808594 2.550781 Z M 12.949219 8.15625 L 12.949219 2.554688 L 13.054688 2.59375 L 13.15625 2.640625 L 13.253906 2.691406 L 13.355469 2.746094 L 13.449219 2.800781 L 13.542969 2.859375 L 13.722656 2.992188 L 13.808594 3.0625 L 13.972656 3.210938 L 14.195312 3.457031 L 14.328125 3.636719 L 14.390625 3.730469 L 14.449219 3.824219 L 14.503906 3.921875 L 14.554688 4.019531 L 14.605469 4.121094 L 14.648438 4.226562 L 14.726562 4.4375 L 14.789062 4.65625 L 14.8125 4.769531 L 14.832031 4.886719 L 14.847656 5 L 14.859375 5.117188 L 14.867188 5.234375 L 14.867188 5.476562 L 14.859375 5.59375 L 14.847656 5.710938 L 14.832031 5.824219 L 14.8125 5.941406 L 14.789062 6.050781 L 14.757812 6.164062 L 14.726562 6.273438 L 14.648438 6.488281 L 14.605469 6.585938 L 14.503906 6.789062 L 14.449219 6.886719 L 14.390625 6.980469 L 14.328125 7.074219 L 14.261719 7.164062 L 14.195312 7.25 L 14.121094 7.335938 L 14.046875 7.417969 L 13.972656 7.496094 L 13.808594 7.648438 L 13.722656 7.71875 L 13.632812 7.78125 L 13.542969 7.847656 L 13.449219 7.910156 L 13.355469 7.964844 L 13.253906 8.019531 L 13.15625 8.070312 L 12.953125 8.15625 Z M 12.949219 8.15625 "/>
</g>
</svg>
