<?xml version="1.0" encoding="UTF-8"?>
<svg xmlns="http://www.w3.org/2000/svg" xmlns:xlink="http://www.w3.org/1999/xlink" width="27pt" height="18pt" viewBox="0 0 27 18" version="1.1">
<g id="surface1">
<path style=" stroke:none;fill-rule:evenodd;fill:rgb(94.117647%,50.980392%,0%);fill-opacity:1;" d="M 26.789062 10.085938 C 0.015625 0.152344 19.46875 15.433594 6.0625 17.828125 L 26.789062 17.828125 Z M 26.789062 10.085938 "/>
<path style=" stroke:none;fill-rule:evenodd;fill:rgb(0%,0%,0%);fill-opacity:1;" d="M 26.886719 0.152344 L 0 0.152344 L 0 18.03125 L 26.980469 18.03125 L 26.980469 0.152344 Z M 26.785156 0.355469 L 26.785156 17.824219 L 0.195312 17.824219 L 0.195312 0.359375 L 26.785156 0.359375 Z M 26.785156 0.355469 "/>
<path style=" stroke:none;fill-rule:evenodd;fill:rgb(100%,100%,100%);fill-opacity:1;" d="M 0.195312 0.359375 L 0.195312 17.828125 L 6.0625 17.828125 C 19.46875 15.433594 26.789062 10.085938 26.789062 10.085938 L 26.789062 0.359375 Z M 3.746094 9.199219 C 3.371094 9.523438 2.945312 9.667969 2.355469 9.667969 L 1.242188 9.667969 L 1.242188 5.621094 L 2.359375 5.621094 C 3.59375 5.621094 4.457031 6.453125 4.457031 7.652344 C 4.453125 8.25 4.191406 8.816406 3.746094 9.199219 Z M 5.566406 9.667969 L 4.8125 9.667969 L 4.8125 5.621094 L 5.566406 5.621094 Z M 7.210938 9.765625 C 6.628906 9.765625 6.207031 9.527344 5.855469 8.992188 L 6.347656 8.503906 C 6.5 8.835938 6.824219 9.046875 7.179688 9.042969 L 7.207031 9.042969 C 7.515625 9.046875 7.765625 8.792969 7.769531 8.472656 C 7.769531 8.300781 7.683594 8.140625 7.539062 8.054688 C 7.375 7.960938 7.195312 7.882812 7.011719 7.824219 C 6.296875 7.558594 6.050781 7.273438 6.050781 6.714844 C 6.050781 6.050781 6.578125 5.554688 7.269531 5.554688 C 7.691406 5.554688 8.101562 5.710938 8.414062 6.003906 L 8.019531 6.546875 C 7.875 6.34375 7.648438 6.222656 7.40625 6.21875 C 7.074219 6.21875 6.835938 6.410156 6.835938 6.664062 C 6.835938 6.882812 6.976562 7 7.429688 7.175781 C 8.296875 7.496094 8.550781 7.796875 8.550781 8.433594 C 8.550781 9.214844 7.992188 9.765625 7.210938 9.765625 Z M 11.816406 6.703125 C 11.5 6.382812 11.222656 6.246094 10.859375 6.246094 L 10.828125 6.246094 C 10.109375 6.273438 9.550781 6.898438 9.574219 7.636719 C 9.574219 8.457031 10.121094 9.03125 10.886719 9.03125 C 11.242188 9.03125 11.578125 8.871094 11.808594 8.589844 L 11.808594 9.527344 C 11.511719 9.679688 11.1875 9.761719 10.859375 9.757812 L 10.804688 9.757812 C 10.269531 9.753906 9.753906 9.535156 9.378906 9.136719 C 9 8.742188 8.789062 8.207031 8.792969 7.652344 L 8.792969 7.621094 C 8.8125 6.449219 9.746094 5.511719 10.878906 5.53125 C 11.207031 5.53125 11.527344 5.613281 11.816406 5.777344 Z M 14.132812 9.8125 C 12.988281 9.8125 12.058594 8.851562 12.058594 7.660156 C 12.054688 6.476562 12.980469 5.511719 14.128906 5.507812 C 15.277344 5.503906 16.207031 6.464844 16.210938 7.652344 C 16.210938 8.226562 15.992188 8.773438 15.605469 9.179688 C 15.214844 9.582031 14.6875 9.8125 14.132812 9.8125 Z M 18.039062 9.773438 L 17.628906 9.773438 L 15.972656 5.621094 L 16.804688 5.621094 L 17.847656 8.339844 L 18.902344 5.621094 L 19.726562 5.621094 Z M 22.230469 6.308594 L 20.832031 6.308594 L 20.832031 7.207031 L 22.171875 7.207031 L 22.171875 7.890625 L 20.824219 7.890625 L 20.824219 8.984375 L 22.226562 8.984375 L 22.226562 9.667969 L 20.070312 9.667969 L 20.070312 5.621094 L 22.230469 5.621094 Z M 24.644531 9.667969 L 23.589844 8.042969 L 23.488281 8.042969 L 23.488281 9.667969 L 22.734375 9.667969 L 22.734375 5.621094 L 23.863281 5.621094 C 24.742188 5.621094 25.246094 6.058594 25.246094 6.816406 C 25.246094 7.441406 24.929688 7.839844 24.355469 7.964844 L 25.582031 9.667969 Z M 24.644531 9.667969 "/>
<path style=" stroke:none;fill-rule:evenodd;fill:rgb(100%,100%,100%);fill-opacity:1;" d="M 0.195312 0.359375 L 0.195312 17.828125 L 6.0625 17.828125 C 19.46875 15.433594 26.789062 10.085938 26.789062 10.085938 L 26.789062 0.359375 Z M 0.195312 0.359375 "/>
<path style=" stroke:none;fill-rule:evenodd;fill:rgb(0%,0%,0%);fill-opacity:1;" d="M 2.359375 5.621094 L 1.242188 5.621094 L 1.242188 9.667969 L 2.355469 9.667969 C 2.945312 9.667969 3.371094 9.523438 3.746094 9.199219 C 4.191406 8.816406 4.453125 8.25 4.457031 7.652344 C 4.457031 6.453125 3.59375 5.621094 2.359375 5.621094 Z M 3.246094 8.660156 C 3.007812 8.882812 2.699219 8.980469 2.207031 8.980469 L 2 8.980469 L 2 6.308594 L 2.207031 6.308594 C 2.695312 6.308594 2.996094 6.398438 3.246094 6.636719 C 3.519531 6.894531 3.671875 7.261719 3.667969 7.640625 C 3.671875 8.027344 3.519531 8.398438 3.246094 8.664062 Z M 4.804688 5.621094 L 5.566406 5.621094 L 5.566406 9.667969 L 4.804688 9.667969 Z M 7.429688 7.175781 C 6.976562 7 6.835938 6.882812 6.835938 6.664062 C 6.835938 6.410156 7.074219 6.21875 7.40625 6.21875 C 7.648438 6.222656 7.875 6.34375 8.019531 6.546875 L 8.414062 6.003906 C 8.101562 5.710938 7.691406 5.554688 7.269531 5.554688 C 6.578125 5.554688 6.050781 6.050781 6.050781 6.714844 C 6.050781 7.273438 6.296875 7.558594 7.011719 7.824219 C 7.195312 7.882812 7.375 7.960938 7.539062 8.054688 C 7.683594 8.140625 7.769531 8.300781 7.769531 8.472656 C 7.765625 8.792969 7.515625 9.046875 7.207031 9.046875 L 7.179688 9.046875 C 6.824219 9.050781 6.5 8.839844 6.347656 8.503906 L 5.855469 8.996094 C 6.207031 9.527344 6.628906 9.769531 7.210938 9.769531 C 7.992188 9.765625 8.550781 9.214844 8.550781 8.433594 C 8.550781 7.796875 8.296875 7.496094 7.429688 7.175781 Z M 8.792969 7.652344 C 8.789062 8.207031 9 8.742188 9.378906 9.136719 C 9.753906 9.535156 10.269531 9.753906 10.804688 9.757812 L 10.859375 9.757812 C 11.1875 9.761719 11.511719 9.679688 11.808594 9.527344 L 11.808594 8.589844 C 11.578125 8.871094 11.242188 9.03125 10.886719 9.03125 C 10.121094 9.03125 9.574219 8.457031 9.574219 7.636719 C 9.550781 6.898438 10.109375 6.273438 10.828125 6.246094 L 10.859375 6.246094 C 11.222656 6.246094 11.5 6.382812 11.816406 6.703125 L 11.816406 5.777344 C 11.527344 5.613281 11.207031 5.53125 10.878906 5.53125 C 10.332031 5.519531 9.804688 5.738281 9.414062 6.128906 C 9.023438 6.523438 8.800781 7.058594 8.792969 7.625 Z M 17.847656 8.339844 L 16.804688 5.621094 L 15.972656 5.621094 L 17.628906 9.773438 L 18.039062 9.773438 L 19.726562 5.621094 L 18.902344 5.621094 Z M 20.070312 9.667969 L 22.230469 9.667969 L 22.230469 8.980469 L 20.832031 8.980469 L 20.832031 7.890625 L 22.179688 7.890625 L 22.179688 7.207031 L 20.832031 7.207031 L 20.832031 6.308594 L 22.230469 6.308594 L 22.230469 5.621094 L 20.070312 5.621094 Z M 20.070312 9.667969 "/>
<path style=" stroke:none;fill-rule:evenodd;fill:rgb(94.117647%,50.980392%,0%);fill-opacity:1;" d="M 16.210938 7.660156 C 16.210938 8.847656 15.28125 9.8125 14.132812 9.8125 C 12.988281 9.8125 12.058594 8.847656 12.058594 7.660156 C 12.058594 6.472656 12.988281 5.507812 14.132812 5.507812 C 15.28125 5.507812 16.210938 6.472656 16.210938 7.660156 Z M 16.210938 7.660156 "/>
<path style=" stroke:none;fill-rule:evenodd;fill:rgb(100%,100%,100%);fill-opacity:1;" d="M 3.246094 8.664062 C 3.007812 8.886719 2.699219 8.984375 2.207031 8.984375 L 2 8.984375 L 2 6.308594 L 2.207031 6.308594 C 2.695312 6.308594 2.996094 6.398438 3.246094 6.636719 C 3.519531 6.894531 3.671875 7.261719 3.667969 7.640625 C 3.671875 8.027344 3.519531 8.398438 3.246094 8.664062 Z M 3.246094 8.664062 "/>
<path style=" stroke:none;fill-rule:evenodd;fill:rgb(0%,0%,0%);fill-opacity:1;" d="M 24.355469 7.964844 C 24.929688 7.839844 25.246094 7.433594 25.246094 6.8125 C 25.246094 6.058594 24.742188 5.621094 23.863281 5.621094 L 22.734375 5.621094 L 22.734375 9.667969 L 23.488281 9.667969 L 23.488281 8.042969 L 23.589844 8.042969 L 24.644531 9.667969 L 25.582031 9.667969 Z M 23.71875 7.484375 L 23.496094 7.484375 L 23.496094 6.257812 L 23.730469 6.257812 C 24.203125 6.257812 24.460938 6.46875 24.460938 6.859375 C 24.460938 7.253906 24.203125 7.484375 23.71875 7.484375 Z M 23.71875 7.484375 "/>
<path style=" stroke:none;fill-rule:evenodd;fill:rgb(100%,100%,100%);fill-opacity:1;" d="M 23.71875 7.484375 L 23.496094 7.484375 L 23.496094 6.257812 L 23.730469 6.257812 C 24.203125 6.257812 24.460938 6.46875 24.460938 6.859375 C 24.460938 7.253906 24.203125 7.484375 23.71875 7.484375 Z M 23.71875 7.484375 "/>
</g>
</svg>
