<?xml version="1.0" encoding="UTF-8"?>
<svg xmlns="http://www.w3.org/2000/svg" xmlns:xlink="http://www.w3.org/1999/xlink" width="24pt" height="18pt" viewBox="0 0 24 18" version="1.1">
<g id="surface1">
<path style=" stroke:none;fill-rule:evenodd;fill:rgb(34.901961%,66.27451%,20%);fill-opacity:1;" d="M 17.804688 10.964844 L 19.515625 10.964844 C 19.582031 10.960938 19.652344 10.953125 19.71875 10.945312 C 20.074219 10.863281 20.324219 10.539062 20.324219 10.171875 C 20.324219 9.800781 20.074219 9.480469 19.71875 9.398438 C 19.652344 9.386719 19.582031 9.378906 19.515625 9.378906 L 17.804688 9.378906 Z M 19.316406 0 C 17.679688 0 16.359375 1.347656 16.359375 3.007812 L 16.359375 6.125 L 20.546875 6.125 C 20.644531 6.125 20.761719 6.132812 20.835938 6.136719 C 21.78125 6.1875 22.480469 6.683594 22.480469 7.535156 C 22.480469 8.210938 22.003906 8.785156 21.136719 8.914062 L 21.136719 8.953125 C 22.09375 9.019531 22.828125 9.558594 22.828125 10.402344 C 22.828125 11.316406 22.023438 11.90625 20.949219 11.90625 L 16.359375 11.90625 L 16.359375 18.023438 L 20.695312 18.023438 C 22.328125 18.023438 23.652344 16.683594 23.648438 15.023438 L 23.648438 0 Z M 20.121094 7.75 C 20.128906 7.394531 19.871094 7.085938 19.523438 7.035156 C 19.464844 7.023438 19.410156 7.019531 19.351562 7.019531 L 17.804688 7.019531 L 17.804688 8.480469 L 19.355469 8.480469 C 19.410156 8.480469 19.46875 8.476562 19.523438 8.464844 C 19.871094 8.414062 20.125 8.109375 20.121094 7.75 Z M 20.121094 7.75 "/>
<path style=" stroke:none;fill-rule:evenodd;fill:rgb(3.921569%,32.156863%,60%);fill-opacity:1;" d="M 2.960938 0 C 1.324219 0 0 1.347656 0 3.007812 L 0 10.425781 C 0.828125 10.832031 1.691406 11.097656 2.554688 11.097656 C 3.574219 11.097656 4.144531 10.464844 4.144531 9.613281 L 4.144531 6.125 L 6.683594 6.125 L 6.683594 9.609375 C 6.683594 10.972656 5.855469 12.066406 3.039062 12.066406 C 2.015625 12.066406 0.992188 11.945312 0 11.695312 L 0 18.027344 L 4.339844 18.027344 C 5.96875 18.027344 7.292969 16.683594 7.292969 15.023438 L 7.292969 0 Z M 2.960938 0 "/>
<path style=" stroke:none;fill-rule:evenodd;fill:rgb(90.196078%,9.411765%,16.470588%);fill-opacity:1;" d="M 11.136719 0 C 9.5 0.00390625 8.179688 1.347656 8.179688 3.007812 L 8.179688 6.9375 C 8.933594 6.285156 10.222656 5.878906 12.328125 5.972656 C 13.109375 6.023438 13.886719 6.144531 14.648438 6.332031 L 14.648438 7.605469 C 13.953125 7.230469 13.195312 7 12.414062 6.9375 C 10.816406 6.816406 9.851562 7.609375 9.851562 9.011719 C 9.851562 10.417969 10.816406 11.207031 12.414062 11.089844 C 13.195312 11.023438 13.953125 10.796875 14.648438 10.425781 L 14.648438 11.695312 C 13.886719 11.882812 13.109375 12.003906 12.328125 12.054688 C 10.226562 12.152344 8.929688 11.742188 8.179688 11.089844 L 8.179688 18.023438 L 12.519531 18.023438 C 13.304688 18.023438 14.054688 17.707031 14.605469 17.144531 C 15.160156 16.582031 15.472656 15.816406 15.46875 15.023438 L 15.46875 0 Z M 11.136719 0 "/>
</g>
</svg>
