<?xml version="1.0" encoding="UTF-8"?>
<svg xmlns="http://www.w3.org/2000/svg" xmlns:xlink="http://www.w3.org/1999/xlink" width="23pt" height="18pt" viewBox="0 0 23 18" version="1.1">
<g id="surface1">
<path style=" stroke:none;fill-rule:evenodd;fill:rgb(0%,0%,0%);fill-opacity:1;" d="M 4.214844 18.070312 L 4.214844 16.871094 C 4.214844 16.410156 3.9375 16.109375 3.460938 16.109375 C 3.226562 16.109375 2.964844 16.191406 2.789062 16.449219 C 2.652344 16.230469 2.453125 16.109375 2.15625 16.109375 C 1.957031 16.109375 1.761719 16.171875 1.601562 16.390625 L 1.601562 16.148438 L 1.1875 16.148438 L 1.1875 18.070312 L 1.601562 18.070312 L 1.601562 17.007812 C 1.601562 16.671875 1.78125 16.511719 2.054688 16.511719 C 2.332031 16.511719 2.472656 16.6875 2.472656 17.007812 L 2.472656 18.070312 L 2.886719 18.070312 L 2.886719 17.007812 C 2.886719 16.671875 3.085938 16.511719 3.34375 16.511719 C 3.621094 16.511719 3.757812 16.6875 3.757812 17.007812 L 3.757812 18.070312 Z M 10.375 16.148438 L 9.699219 16.148438 L 9.699219 15.570312 L 9.285156 15.570312 L 9.285156 16.148438 L 8.90625 16.148438 L 8.90625 16.53125 L 9.285156 16.53125 L 9.285156 17.410156 C 9.285156 17.847656 9.460938 18.109375 9.9375 18.109375 C 10.113281 18.109375 10.3125 18.046875 10.453125 17.96875 L 10.332031 17.609375 C 10.214844 17.6875 10.074219 17.707031 9.976562 17.707031 C 9.777344 17.707031 9.699219 17.585938 9.699219 17.386719 L 9.699219 16.53125 L 10.375 16.53125 Z M 13.898438 16.109375 C 13.660156 16.109375 13.5 16.230469 13.402344 16.390625 L 13.402344 16.148438 L 12.984375 16.148438 L 12.984375 18.070312 L 13.402344 18.070312 L 13.402344 16.988281 C 13.402344 16.671875 13.539062 16.488281 13.796875 16.488281 C 13.875 16.488281 13.976562 16.511719 14.054688 16.53125 L 14.175781 16.128906 C 14.09375 16.109375 13.976562 16.109375 13.898438 16.109375 Z M 8.570312 16.3125 C 8.371094 16.171875 8.09375 16.109375 7.796875 16.109375 C 7.324219 16.109375 7.007812 16.351562 7.007812 16.730469 C 7.007812 17.046875 7.242188 17.230469 7.660156 17.289062 L 7.859375 17.308594 C 8.074219 17.347656 8.191406 17.410156 8.191406 17.507812 C 8.191406 17.648438 8.035156 17.75 7.757812 17.75 C 7.480469 17.75 7.261719 17.648438 7.125 17.546875 L 6.925781 17.867188 C 7.144531 18.027344 7.441406 18.109375 7.738281 18.109375 C 8.292969 18.109375 8.609375 17.847656 8.609375 17.488281 C 8.609375 17.148438 8.351562 16.96875 7.957031 16.910156 L 7.757812 16.890625 C 7.582031 16.871094 7.441406 16.828125 7.441406 16.710938 C 7.441406 16.570312 7.582031 16.488281 7.796875 16.488281 C 8.035156 16.488281 8.273438 16.589844 8.394531 16.648438 Z M 19.617188 16.109375 C 19.382812 16.109375 19.222656 16.230469 19.125 16.390625 L 19.125 16.148438 L 18.707031 16.148438 L 18.707031 18.070312 L 19.125 18.070312 L 19.125 16.988281 C 19.125 16.671875 19.261719 16.488281 19.519531 16.488281 C 19.601562 16.488281 19.695312 16.511719 19.777344 16.53125 L 19.894531 16.128906 C 19.816406 16.109375 19.695312 16.109375 19.617188 16.109375 Z M 14.3125 17.109375 C 14.3125 17.6875 14.710938 18.109375 15.320312 18.109375 C 15.601562 18.109375 15.796875 18.046875 15.996094 17.886719 L 15.796875 17.546875 C 15.640625 17.667969 15.480469 17.730469 15.300781 17.730469 C 14.964844 17.730469 14.730469 17.488281 14.730469 17.109375 C 14.730469 16.75 14.964844 16.511719 15.300781 16.488281 C 15.480469 16.488281 15.640625 16.550781 15.796875 16.671875 L 15.996094 16.332031 C 15.796875 16.171875 15.601562 16.109375 15.320312 16.109375 C 14.710938 16.109375 14.3125 16.53125 14.3125 17.109375 Z M 18.15625 17.109375 L 18.15625 16.148438 L 17.738281 16.148438 L 17.738281 16.390625 C 17.601562 16.210938 17.402344 16.109375 17.144531 16.109375 C 16.609375 16.109375 16.195312 16.53125 16.195312 17.109375 C 16.195312 17.6875 16.609375 18.109375 17.144531 18.109375 C 17.421875 18.109375 17.621094 18.007812 17.738281 17.828125 L 17.738281 18.070312 L 18.15625 18.070312 Z M 16.628906 17.109375 C 16.628906 16.769531 16.84375 16.488281 17.203125 16.488281 C 17.539062 16.488281 17.777344 16.75 17.777344 17.109375 C 17.777344 17.449219 17.539062 17.730469 17.203125 17.730469 C 16.84375 17.707031 16.628906 17.449219 16.628906 17.109375 Z M 11.660156 16.109375 C 11.105469 16.109375 10.707031 16.511719 10.707031 17.109375 C 10.707031 17.707031 11.105469 18.109375 11.679688 18.109375 C 11.957031 18.109375 12.234375 18.027344 12.453125 17.847656 L 12.253906 17.546875 C 12.09375 17.667969 11.898438 17.75 11.699219 17.75 C 11.441406 17.75 11.183594 17.628906 11.125 17.289062 L 12.53125 17.289062 L 12.53125 17.128906 C 12.550781 16.511719 12.195312 16.109375 11.660156 16.109375 Z M 11.660156 16.46875 C 11.917969 16.46875 12.09375 16.632812 12.132812 16.929688 L 11.144531 16.929688 C 11.183594 16.671875 11.363281 16.46875 11.660156 16.46875 Z M 21.976562 17.109375 L 21.976562 15.394531 L 21.558594 15.394531 L 21.558594 16.390625 C 21.421875 16.210938 21.222656 16.109375 20.964844 16.109375 C 20.429688 16.109375 20.015625 16.53125 20.015625 17.109375 C 20.015625 17.6875 20.429688 18.109375 20.964844 18.109375 C 21.242188 18.109375 21.441406 18.007812 21.558594 17.828125 L 21.558594 18.070312 L 21.976562 18.070312 Z M 20.449219 17.109375 C 20.449219 16.769531 20.667969 16.488281 21.023438 16.488281 C 21.363281 16.488281 21.597656 16.75 21.597656 17.109375 C 21.597656 17.449219 21.363281 17.730469 21.023438 17.730469 C 20.667969 17.707031 20.449219 17.449219 20.449219 17.109375 Z M 6.550781 17.109375 L 6.550781 16.148438 L 6.136719 16.148438 L 6.136719 16.390625 C 5.996094 16.210938 5.796875 16.109375 5.542969 16.109375 C 5.007812 16.109375 4.589844 16.53125 4.589844 17.109375 C 4.589844 17.6875 5.007812 18.109375 5.542969 18.109375 C 5.816406 18.109375 6.015625 18.007812 6.136719 17.828125 L 6.136719 18.070312 L 6.550781 18.070312 Z M 5.007812 17.109375 C 5.007812 16.769531 5.222656 16.488281 5.582031 16.488281 C 5.917969 16.488281 6.15625 16.75 6.15625 17.109375 C 6.15625 17.449219 5.917969 17.730469 5.582031 17.730469 C 5.222656 17.707031 5.007812 17.449219 5.007812 17.109375 Z M 5.007812 17.109375 "/>
<path style=" stroke:none;fill-rule:evenodd;fill:rgb(100%,37.254902%,0%);fill-opacity:1;" d="M 8.433594 1.59375 L 14.667969 1.59375 L 14.667969 12.894531 L 8.433594 12.894531 Z M 8.433594 1.59375 "/>
<path style=" stroke:none;fill-rule:evenodd;fill:rgb(92.156863%,0%,10.588235%);fill-opacity:1;" d="M 8.828125 7.246094 C 8.828125 4.949219 9.898438 2.914062 11.539062 1.59375 C 10.332031 0.636719 8.808594 0.0546875 7.144531 0.0546875 C 3.207031 0.0546875 0.015625 3.273438 0.015625 7.246094 C 0.015625 11.21875 3.207031 14.433594 7.144531 14.433594 C 8.808594 14.433594 10.332031 13.855469 11.539062 12.894531 C 9.898438 11.597656 8.828125 9.539062 8.828125 7.246094 Z M 8.828125 7.246094 "/>
<path style=" stroke:none;fill-rule:evenodd;fill:rgb(96.862745%,61.960784%,10.588235%);fill-opacity:1;" d="M 23.082031 7.246094 C 23.082031 11.21875 19.894531 14.433594 15.953125 14.433594 C 14.292969 14.433594 12.769531 13.855469 11.558594 12.894531 C 13.222656 11.578125 14.273438 9.539062 14.273438 7.246094 C 14.273438 4.949219 13.203125 2.914062 11.558594 1.59375 C 12.769531 0.636719 14.292969 0.0546875 15.957031 0.0546875 C 19.894531 0.0546875 23.082031 3.292969 23.082031 7.246094 Z M 23.082031 7.246094 "/>
</g>
</svg>
