<?xml version="1.0" encoding="UTF-8"?>
<svg xmlns="http://www.w3.org/2000/svg" xmlns:xlink="http://www.w3.org/1999/xlink" width="27pt" height="18pt" viewBox="0 0 27 18" version="1.1">
<g id="surface1">
<path style=" stroke:none;fill-rule:evenodd;fill:rgb(0%,24.313725%,54.901961%);fill-opacity:1;" d="M 0.00390625 18.039062 L 0.363281 18.039062 L 0.363281 14.839844 L 0.00390625 14.839844 Z M 2.664062 14.839844 L 2.664062 17.425781 L 2.65625 17.425781 L 1.332031 14.839844 L 0.914062 14.839844 L 0.914062 18.039062 L 1.257812 18.039062 L 1.257812 15.457031 L 1.261719 15.457031 L 2.609375 18.039062 L 3.011719 18.039062 L 3.011719 14.839844 Z M 3.230469 14.839844 L 3.230469 15.226562 L 4.015625 15.226562 L 4.015625 18.039062 L 4.332031 18.039062 L 4.332031 15.226562 L 5.121094 15.226562 L 5.121094 14.839844 Z M 14.636719 14.839844 L 14.636719 15.226562 L 15.425781 15.226562 L 15.425781 18.039062 L 15.738281 18.039062 L 15.738281 15.226562 L 16.527344 15.226562 L 16.527344 14.839844 Z M 5.445312 14.839844 L 5.445312 18.039062 L 7.128906 18.039062 L 7.128906 17.65625 L 5.75 17.65625 L 5.75 16.585938 L 7 16.585938 L 7 16.207031 L 5.75 16.207031 L 5.75 15.226562 L 7.109375 15.226562 L 7.109375 14.839844 Z M 11.808594 14.839844 L 11.808594 17.425781 L 11.800781 17.425781 L 10.476562 14.839844 L 10.054688 14.839844 L 10.054688 18.039062 L 10.402344 18.039062 L 10.402344 15.457031 L 10.40625 15.457031 L 11.75 18.039062 L 12.152344 18.039062 L 12.152344 14.839844 Z M 13.460938 14.839844 L 12.464844 18.039062 L 12.835938 18.039062 L 13.113281 17.109375 L 14.171875 17.109375 L 14.433594 18.039062 L 14.824219 18.039062 L 13.863281 14.839844 Z M 13.644531 15.320312 L 13.652344 15.320312 L 14.042969 16.726562 L 13.222656 16.726562 Z M 16.84375 18.039062 L 17.199219 18.039062 L 17.199219 14.839844 L 16.84375 14.839844 Z M 18.757812 17.742188 C 18.238281 17.742188 17.925781 17.195312 17.925781 16.441406 C 17.925781 15.6875 18.238281 15.140625 18.757812 15.140625 C 19.273438 15.140625 19.589844 15.6875 19.589844 16.441406 C 19.589844 17.195312 19.273438 17.742188 18.757812 17.742188 M 18.757812 14.761719 C 17.863281 14.761719 17.589844 15.75 17.589844 16.441406 C 17.589844 17.132812 17.863281 18.125 18.757812 18.125 C 19.648438 18.125 19.921875 17.132812 19.921875 16.441406 C 19.921875 15.75 19.648438 14.761719 18.757812 14.761719 M 22.164062 17.425781 L 22.15625 17.425781 L 20.832031 14.839844 L 20.410156 14.839844 L 20.410156 18.039062 L 20.753906 18.039062 L 20.753906 15.457031 L 20.761719 15.457031 L 22.109375 18.039062 L 22.511719 18.039062 L 22.511719 14.839844 L 22.164062 14.839844 Z M 23.558594 16.726562 L 23.984375 15.320312 L 23.992188 15.320312 L 24.378906 16.726562 Z M 23.800781 14.839844 L 22.804688 18.039062 L 23.175781 18.039062 L 23.449219 17.109375 L 24.511719 17.109375 L 24.773438 18.039062 L 25.160156 18.039062 L 24.203125 14.839844 Z M 9.617188 15.632812 C 9.617188 14.773438 8.601562 14.851562 8.601562 14.851562 L 7.636719 14.851562 L 7.636719 18.054688 L 7.980469 18.054688 L 7.980469 15.21875 L 8.566406 15.21875 C 8.566406 15.21875 9.253906 15.15625 9.253906 15.769531 C 9.253906 16.382812 8.570312 16.46875 8.304688 16.46875 L 9.230469 18.027344 L 9.644531 18.027344 L 8.886719 16.761719 C 9.210938 16.65625 9.617188 16.378906 9.617188 15.632812 M 25.761719 17.65625 L 25.761719 14.839844 L 25.441406 14.839844 L 25.441406 18.039062 L 26.972656 18.039062 L 26.972656 17.65625 Z M 25.761719 17.65625 "/>
<path style=" stroke:none;fill-rule:evenodd;fill:rgb(99.607843%,99.607843%,99.607843%);fill-opacity:1;" d="M 0 7.195312 L 26.863281 7.195312 L 26.863281 0.0585938 L 0 0.0585938 Z M 0 7.195312 "/>
<path style=" stroke:none;fill-rule:evenodd;fill:rgb(7.843137%,57.254902%,26.27451%);fill-opacity:1;" d="M 0 13.871094 L 26.863281 13.871094 L 26.863281 7.195312 L 0 7.195312 Z M 0 13.871094 "/>
<path style=" stroke:none;fill-rule:evenodd;fill:rgb(0%,24.313725%,54.901961%);fill-opacity:1;" d="M 26.464844 13.453125 L 0.402344 13.453125 L 0.402344 7.195312 L 26.464844 7.195312 Z M 3.777344 4.125 C 3.421875 3.792969 2.941406 3.785156 2.535156 3.601562 C 2.125 3.433594 1.796875 3.011719 1.796875 2.542969 C 1.757812 2.078125 2.023438 1.632812 2.421875 1.398438 C 2.824219 1.148438 3.421875 1.183594 3.792969 1.480469 C 3.992188 1.625 4.15625 1.824219 4.234375 2.050781 L 3.898438 2.1875 C 3.789062 1.980469 3.613281 1.785156 3.398438 1.6875 C 3.09375 1.550781 2.695312 1.625 2.449219 1.859375 C 2.21875 2.089844 2.109375 2.40625 2.191406 2.726562 C 2.515625 3.570312 3.527344 3.257812 4.054688 3.851562 C 4.382812 4.199219 4.496094 4.777344 4.296875 5.226562 C 4.050781 5.773438 3.5 6.058594 2.980469 6.070312 C 2.46875 6.050781 1.976562 5.796875 1.691406 5.320312 C 1.636719 5.203125 1.558594 5.105469 1.546875 4.976562 L 1.863281 4.84375 L 1.972656 5.035156 C 2.175781 5.425781 2.582031 5.679688 2.988281 5.671875 C 3.390625 5.652344 3.8125 5.414062 3.96875 5.007812 C 4.074219 4.707031 3.980469 4.347656 3.777344 4.125 Z M 7.167969 1.226562 L 9.082031 5.9375 L 8.664062 5.9375 L 8.070312 4.433594 L 6.269531 4.433594 L 5.671875 5.9375 L 5.257812 5.9375 Z M 10.183594 1.285156 L 10.613281 1.285156 L 10.613281 5.917969 L 10.183594 5.917969 Z M 14.421875 4.125 C 14.0625 3.792969 13.582031 3.785156 13.175781 3.601562 C 12.765625 3.433594 12.4375 3.011719 12.4375 2.542969 C 12.398438 2.078125 12.664062 1.632812 13.0625 1.398438 C 13.46875 1.148438 14.0625 1.183594 14.433594 1.480469 C 14.636719 1.625 14.796875 1.824219 14.875 2.050781 L 14.539062 2.1875 C 14.429688 1.980469 14.253906 1.785156 14.042969 1.6875 C 13.734375 1.550781 13.335938 1.625 13.089844 1.859375 C 12.859375 2.089844 12.75 2.40625 12.835938 2.726562 C 13.15625 3.570312 14.167969 3.257812 14.699219 3.851562 C 15.023438 4.199219 15.132812 4.777344 14.9375 5.226562 C 14.695312 5.773438 14.136719 6.058594 13.621094 6.070312 C 13.113281 6.050781 12.617188 5.796875 12.332031 5.320312 C 12.277344 5.203125 12.199219 5.105469 12.1875 4.976562 L 12.503906 4.84375 L 12.613281 5.035156 C 12.8125 5.425781 13.222656 5.679688 13.632812 5.671875 C 14.03125 5.652344 14.453125 5.414062 14.605469 5.007812 C 14.714844 4.707031 14.625 4.347656 14.421875 4.125 Z M 16.214844 3.324219 C 16.332031 2.242188 17.175781 1.371094 18.21875 1.242188 C 19.601562 1.078125 20.816406 2.199219 20.816406 3.605469 C 20.816406 4.921875 19.757812 6.023438 18.492188 6.023438 C 17.140625 6.023438 16.054688 4.761719 16.214844 3.324219 Z M 22.128906 1.179688 L 24.886719 4.800781 L 24.886719 1.207031 L 25.257812 1.207031 L 25.257812 5.933594 L 22.5 2.3125 L 22.5 5.792969 L 22.128906 5.792969 Z M 0 13.871094 L 26.863281 13.871094 L 26.863281 0.0585938 L 0 0.0585938 Z M 0 13.871094 "/>
<path style=" stroke:none;fill-rule:evenodd;fill:rgb(0%,24.313725%,54.901961%);fill-opacity:1;" d="M 18.492188 4.195312 C 18.789062 4.195312 19.054688 3.988281 19.054688 3.605469 C 19.054688 3.296875 18.789062 3.054688 18.492188 3.054688 C 18.199219 3.054688 17.957031 3.296875 17.957031 3.605469 C 17.957031 3.914062 18.199219 4.195312 18.492188 4.195312 "/>
<path style=" stroke:none;fill-rule:evenodd;fill:rgb(0%,24.313725%,54.901961%);fill-opacity:1;" d="M 17.839844 2.964844 C 18.015625 2.789062 18.246094 2.671875 18.492188 2.671875 C 18.742188 2.671875 18.992188 2.757812 19.171875 2.945312 C 19.347656 3.125 19.441406 3.363281 19.441406 3.605469 C 19.441406 4.171875 19.03125 4.570312 18.492188 4.570312 C 18.257812 4.570312 18.039062 4.476562 17.859375 4.292969 C 17.679688 4.105469 17.597656 3.871094 17.597656 3.605469 C 17.597656 3.351562 17.667969 3.148438 17.839844 2.964844 M 18.492188 5.632812 C 19.542969 5.632812 20.4375 4.695312 20.4375 3.605469 C 20.4375 2.515625 19.542969 1.628906 18.492188 1.628906 C 17.441406 1.628906 16.585938 2.515625 16.585938 3.605469 C 16.585938 4.695312 17.441406 5.632812 18.492188 5.632812 M 7.167969 2.171875 L 6.429688 4.035156 L 7.90625 4.035156 Z M 7.167969 2.171875 "/>
<path style=" stroke:none;fill-rule:evenodd;fill:rgb(99.607843%,99.607843%,99.607843%);fill-opacity:1;" d="M 14.652344 8.4375 L 15.554688 8.4375 C 16.078125 8.4375 16.5 8.832031 16.5 9.371094 C 16.5 9.910156 16.078125 10.347656 15.554688 10.347656 L 14.652344 10.347656 Z M 14.652344 12.746094 L 14.652344 10.765625 L 15.332031 10.765625 L 16.488281 12.746094 L 16.910156 12.746094 L 15.886719 10.722656 C 16.46875 10.570312 16.902344 10.179688 16.902344 9.371094 C 16.902344 9.011719 16.804688 8.636719 16.566406 8.386719 C 16.3125 8.128906 15.933594 8.019531 15.554688 8.019531 L 14.246094 8.019531 L 14.25 12.746094 Z M 7.179688 12.816406 C 7.660156 12.816406 8.105469 12.667969 8.476562 12.414062 L 8.402344 11.957031 C 8.066406 12.234375 7.644531 12.398438 7.179688 12.398438 C 6.089844 12.398438 5.207031 11.480469 5.207031 10.347656 C 5.207031 9.214844 6.089844 8.296875 7.179688 8.296875 C 7.683594 8.296875 8.105469 8.453125 8.429688 8.714844 L 8.453125 8.230469 C 8.085938 8 7.65625 7.882812 7.179688 7.882812 C 6.546875 7.882812 5.949219 8.136719 5.5 8.601562 C 5.050781 9.070312 4.804688 9.691406 4.804688 10.347656 C 4.804688 11.007812 5.050781 11.628906 5.5 12.09375 C 5.945312 12.558594 6.546875 12.816406 7.179688 12.816406 M 18.949219 8.472656 L 19.792969 8.472656 C 20.792969 8.472656 21.597656 9.335938 21.597656 10.402344 C 21.597656 11.46875 20.792969 12.332031 19.792969 12.332031 L 18.949219 12.332031 Z M 19.792969 12.75 C 21.011719 12.75 22.050781 11.644531 22.050781 10.347656 C 22.050781 9.714844 21.765625 9.167969 21.335938 8.726562 C 20.917969 8.292969 20.371094 8.054688 19.792969 8.054688 L 18.464844 8.054688 L 18.464844 12.75 Z M 11.257812 8.890625 L 12 10.773438 L 10.507812 10.773438 Z M 10.347656 11.179688 L 12.164062 11.179688 L 12.765625 12.699219 L 13.1875 12.699219 L 11.257812 7.933594 L 9.324219 12.699219 L 9.742188 12.699219 Z M 10.347656 11.179688 "/>
</g>
</svg>
