<?xml version="1.0" encoding="UTF-8"?>
<svg xmlns="http://www.w3.org/2000/svg" xmlns:xlink="http://www.w3.org/1999/xlink" width="38pt" height="12pt" viewBox="0 0 38 12" version="1.1">
<g id="surface1">
<path style=" stroke:none;fill-rule:evenodd;fill:rgb(0.392157%,32.54902%,58.823529%);fill-opacity:1;" d="M 18.78125 8.859375 L 18.316406 11.203125 C 18.316406 11.203125 20.570312 11.820312 21.6875 11.820312 C 23.183594 11.820312 25.992188 11.441406 26.757812 9.15625 C 27.523438 6.871094 26.128906 5.753906 24.804688 4.992188 C 23.476562 4.230469 22.453125 3.824219 22.828125 3.015625 C 23.199219 2.207031 25.828125 2.113281 27.035156 2.917969 L 27.457031 0.5625 C 27.457031 0.5625 25.96875 -0.136719 23.804688 0.113281 C 21.476562 0.378906 19.910156 1.542969 19.6875 2.898438 C 19.472656 4.191406 19.640625 5.253906 21.152344 6.179688 C 22.664062 7.109375 23.875 7.46875 23.804688 8.394531 C 23.734375 9.320312 22.175781 9.605469 20.875 9.394531 C 19.570312 9.179688 18.78125 8.859375 18.78125 8.859375 M 31.585938 7.742188 L 33.21875 3.34375 L 34.121094 7.742188 Z M 34.953125 11.789062 L 37.710938 11.789062 L 35.308594 0.210938 L 32.78125 0.210938 C 32.78125 0.210938 32.160156 0.171875 31.757812 0.621094 C 31.355469 1.074219 30.921875 2.1875 30.921875 2.1875 L 27.011719 11.789062 L 30.085938 11.789062 L 30.726562 10.050781 L 34.59375 10.050781 Z M 15.246094 0.210938 L 13.339844 11.789062 L 16.410156 11.789062 L 18.316406 0.210938 Z M 10.757812 0.210938 L 7.773438 8.03125 L 7.324219 6.289062 C 7.316406 6.265625 6.078125 3.554688 3.277344 1.679688 L 5.898438 11.789062 L 9.175781 11.789062 L 13.921875 0.210938 Z M 10.757812 0.210938 "/>
<path style=" stroke:none;fill-rule:evenodd;fill:rgb(92.54902%,62.352941%,14.117647%);fill-opacity:1;" d="M 0 0.234375 L 4.535156 0.234375 C 4.894531 0.234375 5.765625 0.378906 6.09375 0.910156 C 6.421875 1.445312 7.324219 6.289062 7.324219 6.289062 C 7.324219 6.289062 5.164062 1.492188 0 0.234375 "/>
</g>
</svg>
